<?xml version="1.0" encoding="utf-8"?>
<!-- Generator: Adobe Illustrator 16.0.0, SVG Export Plug-In . SVG Version: 6.00 Build 0)  -->
<!DOCTYPE svg PUBLIC "-//W3C//DTD SVG 1.1//EN" "http://www.w3.org/Graphics/SVG/1.1/DTD/svg11.dtd">
<svg version="1.1" id="Layer_1" xmlns="http://www.w3.org/2000/svg" xmlns:xlink="http://www.w3.org/1999/xlink" x="0px" y="0px"
	 width="299.999px" height="299.997px" viewBox="0 0 299.999 299.997" enable-background="new 0 0 299.999 299.997"
	 xml:space="preserve">
<path fill-rule="evenodd" clip-rule="evenodd" fill="#FDFDFD" d="M2.6,300.68c-1.04,0-2.081-0.026-3.119,0.014
	c-0.419,0.016-0.563-0.075-0.487-0.495C-0.971,300.005-1,299.8-1,299.6C-1,199.76-0.999,99.92-1.022,0.08
	c0-0.899,0.203-1.102,1.102-1.102c99.84,0.023,199.68,0.023,299.52,0c0.9,0,1.189,0.196,1.1,1.104
	c-0.09,0.912-0.02,1.838-0.02,2.758c-1.118-3.107-1.55-3.383-5.013-3.405c-2.585-0.017-5.127,0.517-7.705,0.565
	c-0.722-0.001-1.442-0.002-2.164-0.003c-5.58-0.012-11.16-0.035-16.74-0.034C263.04-0.036,257.021-0.013,251.001,0
	c-0.641,0-1.282,0-1.923,0c-2.869-0.014-5.738-0.04-8.607-0.038c-8.49,0.007-16.979,0.024-25.47,0.038c-0.961,0-1.922,0-2.883,0
	c-8.079,0-16.158,0-24.236,0c-0.962,0-1.923,0-2.884,0c-5.142-0.013-10.282-0.038-15.424-0.037
	C163.357-0.036,157.139-0.013,150.922,0c-0.642,0-1.283,0-1.924,0c-5.221-0.013-10.442-0.038-15.663-0.037
	C127.198-0.036,121.06-0.013,114.922,0c-0.961,0-1.922,0-2.884,0c-8.079,0-16.158,0.001-24.236,0.002C86.841,0.001,85.88,0,84.918,0
	c-1.992-0.014-3.984-0.039-5.976-0.038c-9.287,0.008-18.574,0.023-27.86,0.036c-0.721,0-1.442,0-2.164,0
	c-5.5-0.013-11.001-0.036-16.501-0.036C26.319-0.036,20.22-0.013,14.122,0c-0.641,0-1.282,0.001-1.923,0.002
	C8.931-0.039,5.664,0.153,2.394-0.124C0.828-0.257,0.138,0.495-0.027,2.052c-0.055,0.515-0.051,1.037-0.049,1.556
	c0.023,6.07,0.056,12.14,0.075,18.21c0.011,3.753,0.002,7.506,0.002,11.26c0,0.961,0,1.922,0,2.883
	c-0.013,2.31-0.04,4.619-0.038,6.928c0.008,7.129,0.026,14.259,0.041,21.388C0.002,65.239,0,66.2-0.001,67.161
	c-0.013,0.279-0.037,0.558-0.037,0.836c-0.002,21.362-0.002,42.724,0,64.085c0,0.278,0.024,0.557,0.038,0.835
	c0,1.041,0,2.083,0,3.124C0,145.72,0,155.399,0,165.078c0,0.641,0,1.282,0,1.924c-0.014,0.278-0.039,0.557-0.039,0.835
	c-0.002,21.762-0.002,43.523,0,65.285c0,0.278,0.025,0.558,0.038,0.836c0,0.961,0,1.922,0,2.884c0,9.438,0,18.877,0,28.316
	c0,0.961,0,1.922,0,2.884c-0.205,9.2,0.333,18.415-0.556,27.602C-0.795,298.118-0.096,300.032,2.6,300.68z"/>
<path fill-rule="evenodd" clip-rule="evenodd" fill="#333333" d="M287.962,0c2.578-0.048,5.124-0.419,7.705-0.565
	c8.093-0.458,3.895,0.297,5.013,3.405c0,1.04,0,2.08,0,3.12c-0.518,2.079-0.645,4.209-0.664,6.332
	c-0.063,6.849-0.051,13.698-0.067,20.548c-0.656,0.077-1.256-0.143-1.865-0.338c-5.684-1.829-10.878-4.751-16.235-7.305
	c-1.651-0.787-2.379-2.521-2-4.34c0.152-0.735,0.395-1.461,0.674-2.16c1.345-3.373,3.048-6.582,4.558-9.879
	C286.374,5.992,287.493,3.1,287.962,0z"/>
<path fill-rule="evenodd" clip-rule="evenodd" fill="#333333" d="M2.6,300.68c-2.696-0.647-3.625,1.414-3.156-5.036
	c0.67-9.205,0.351-18.401,0.556-27.602c0.733,0.177,1.481,0.306,2.196,0.539c5.405,1.763,10.313,4.658,15.53,6.858
	c1.87,0.79,2.708,2.688,2.331,4.415c-0.136,0.621-0.306,1.241-0.533,1.834c-1.372,3.581-3.226,6.944-4.731,10.465
	c-1.079,2.523-2.232,5.027-2.594,7.792c-2.158,0.26-4.351,0.217-6.479,0.734C4.68,300.68,3.64,300.68,2.6,300.68z"/>
<path fill-rule="evenodd" clip-rule="evenodd" fill="#FDFDFD" d="M5.72,300.68c2.129-0.518,4.321-0.475,6.479-0.734
	c0.96,0,1.921,0.001,2.881,0.001c0.437,0.018,0.874,0.05,1.311,0.051c8.571,0.003,17.143,0.005,25.715-0.001
	c2.271-0.001,4.542-0.031,6.813-0.049c0.721,0,1.441,0,2.162,0.001c0.437,0.017,0.874,0.049,1.311,0.049
	c8.891,0.003,17.781,0.005,26.671-0.001c1.952-0.001,3.904-0.032,5.856-0.05c0.96,0,1.921-0.001,2.881-0.001
	c1.034,0.018,2.067,0.053,3.101,0.051c7.046-0.012,14.092-0.032,21.138-0.05c1.041,0.001,2.081,0.001,3.122,0.002
	c0.437,0.017,0.874,0.049,1.311,0.049c8.97,0.003,17.94,0.005,26.911-0.001c1.873-0.001,3.745-0.032,5.617-0.05
	c0.641,0,1.281,0,1.922,0c0.437,0.018,0.874,0.05,1.311,0.051c9.13,0.003,18.26,0.005,27.39-0.001c1.793,0,3.586-0.032,5.378-0.05
	c0.961,0,1.921,0,2.882,0c1.591,0.018,3.182,0.053,4.772,0.05c6.489-0.011,12.978-0.032,19.466-0.05
	c1.04,0.001,2.081,0.002,3.121,0.003c0.438,0.017,0.874,0.048,1.312,0.048c9.05,0.003,18.1,0.005,27.149-0.001
	c1.793,0,3.585-0.033,5.378-0.051c0.641,0.001,1.281,0.001,1.921,0.001c0.438,0.018,0.874,0.05,1.312,0.051
	c8.332,0.003,16.665,0.006,24.997,0c2.51-0.002,5.021-0.032,7.53-0.049c1.041-0.001,2.081-0.001,3.122-0.002
	c3.151,0.163,6.309-0.141,9.46,0.126c2.161,0.184,2.657-0.268,2.651-2.419c-0.017-5.596-0.049-11.19-0.073-16.785
	c-0.019-4.276-0.035-8.552-0.053-12.828c0-0.96-0.001-1.921-0.001-2.881c0.019-3.704,0.052-7.408,0.05-11.111
	c-0.003-5.736-0.031-11.472-0.049-17.207c0-0.961,0-1.921-0.001-2.882c0.019-0.318,0.052-0.636,0.052-0.953
	c0.002-21.604,0.002-43.208,0-64.812c0-0.318-0.031-0.636-0.048-0.954c-0.001-0.721-0.002-1.44-0.003-2.161
	c0.018-6.493,0.044-12.987,0.049-19.481c0.003-3.266-0.032-6.532-0.051-9.798c0.001-0.96,0.002-1.921,0.002-2.881
	c0.018-0.318,0.051-0.636,0.051-0.954c0.002-21.284,0.002-42.567,0-63.851c0-0.318-0.032-0.636-0.049-0.954
	c-0.002-0.961-0.004-1.921-0.006-2.882c0.019-3.624,0.055-7.248,0.053-10.872c-0.003-5.815-0.031-11.631-0.049-17.446
	c0.001-1.041,0.001-2.081,0.002-3.121c0.017-6.85,0.005-13.699,0.067-20.548c0.02-2.122,0.146-4.252,0.664-6.332
	c0,97.88-0.001,195.76,0.022,293.64c0,0.899-0.202,1.103-1.103,1.103C201.64,300.679,103.68,300.68,5.72,300.68z"/>
<path fill-rule="evenodd" clip-rule="evenodd" fill="#333333" d="M0,35.961c2.568-0.61,5.031-1.533,7.407-2.66
	c3.386-1.604,6.673-3.417,10.157-4.813c1.186-0.475,2.384-0.862,3.713-0.595c2.025,0.406,3.158,1.894,3.95,3.532
	c2.32,4.801,4.945,9.48,6.199,14.739c0.94,3.94,0.46,7.734-0.909,11.483c-1.539,4.211-3.715,8.113-5.816,12.049
	c-0.896,1.679-2.031,3.229-4.314,2.971c-0.917-0.104-1.779-0.443-2.606-0.829c-5.018-2.341-10.09-4.556-15.223-6.633
	C1.718,64.866,1,64.186,0.003,64.278c-0.014-7.129-0.033-14.259-0.041-21.388C-0.04,40.581-0.013,38.271,0,35.961z"/>
<path fill-rule="evenodd" clip-rule="evenodd" fill="#333333" d="M0,236.842c1.853-0.401,3.443-1.438,5.167-2.149
	c3.976-1.643,7.909-3.389,11.873-5.061c1.246-0.524,2.522-1.009,3.916-0.949c1.183,0.05,2.113,0.538,2.82,1.525
	c2.226,3.107,3.604,6.649,5.214,10.073c1.087,2.313,1.986,4.695,2.646,7.165c1.102,4.123,0.315,8.07-1.308,11.867
	c-1.756,4.107-3.758,8.104-6.227,11.845c-1.109,1.681-2.68,2.26-4.657,1.823c-1.968-0.436-3.732-1.382-5.546-2.189
	c-3.492-1.554-6.863-3.378-10.451-4.722c-1.117-0.418-2.232-0.854-3.446-0.912C0.001,255.719,0.001,246.28,0,236.842z"/>
<path fill-rule="evenodd" clip-rule="evenodd" fill="#333333" d="M0,136.042c5.106-1.134,9.784-3.345,14.436-5.652
	c1.81-0.898,3.61-1.896,5.637-2.268c2.197-0.404,3.74,0.392,4.58,2.453c1.894,4.647,4.2,9.119,5.893,13.85
	c1.432,4.001,1.9,8.005,0.397,12.138c-1.74,4.784-4.056,9.283-6.473,13.74c-1.53,2.821-3.804,2.991-6.443,1.976
	c-3.162-1.218-6.141-2.86-9.202-4.312c-2.813-1.332-5.719-2.425-8.823-2.888C0,155.399,0,145.72,0,136.042z"/>
<path fill-rule="evenodd" clip-rule="evenodd" fill="#333333" d="M212.119,0c0.445,2.615,1.502,5.027,2.553,7.43
	c1.53,3.501,3.18,6.951,4.708,10.453c0.917,2.1,1.387,4.258-0.078,6.351c-0.864,1.234-2.146,1.89-3.514,2.364
	c-0.957,0.333-1.781,0.831-2.599,1.421c-3.093,2.236-6.526,3.527-10.364,3.889c-5.149,0.485-9.807-1.094-14.367-3.129
	c-2.036-0.909-3.987-2.015-5.951-3.079c-2.58-1.397-3.031-3.056-2.309-5.822c0.739-2.824,2.195-5.379,3.41-8.021
	c1.581-3.439,3.174-6.871,4.114-10.562c0.111-0.436,0.153-0.858,0.16-1.296C195.96,0,204.04,0,212.119,0z"/>
<path fill-rule="evenodd" clip-rule="evenodd" fill="#333333" d="M112.039,0c0.718,4.252,2.494,8.126,4.338,11.967
	c0.985,2.052,1.949,4.11,2.864,6.193c0.629,1.434,0.871,2.908,0.706,4.437c-0.203,1.877-1.6,2.902-3.137,3.445
	c-2.292,0.81-4.239,2.163-6.311,3.337c-2.738,1.551-5.678,2.385-8.868,2.531c-5.9,0.27-11.11-1.779-16.163-4.463
	c-1.225-0.65-2.454-1.296-3.536-2.2c-2.053-1.714-2.372-3.26-1.904-5.379c0.597-2.707,1.967-5.127,3.087-7.633
	c1.545-3.458,3.21-6.865,4.378-10.48c0.184-0.571,0.38-1.138,0.309-1.753C95.881,0.001,103.959,0,112.039,0z"/>
<path fill-rule="evenodd" clip-rule="evenodd" fill="#333333" d="M0.001,167.002c2.249,1.011,4.494,2.033,6.749,3.031
	c3.204,1.418,6.393,2.872,9.629,4.213c3.546,1.469,4.699,4.093,3.033,7.566c-2.45,5.107-4.665,10.319-6.987,15.484
	c-0.982,2.185-0.907,4.467,0.021,6.604c2.237,5.152,4.606,10.247,6.933,15.36c0.573,1.26,0.863,2.562,0.742,3.949
	c-0.143,1.633-1.235,2.615-2.541,3.226c-3.14,1.466-6.348,2.789-9.538,4.149c-2.674,1.14-5.36,2.249-8.042,3.372
	c-0.013-0.278-0.038-0.558-0.038-0.836c-0.002-21.762-0.002-43.523,0-65.285C-0.038,167.559-0.013,167.28,0.001,167.002z"/>
<path fill-rule="evenodd" clip-rule="evenodd" fill="#333333" d="M-0.001,67.161c1.864,0.141,3.505,1,5.191,1.677
	c2.889,1.159,5.688,2.527,8.445,3.97c1.621,0.848,3.404,1.355,4.905,2.465c1.666,1.231,1.954,2.52,1.366,4.522
	c-0.719,2.45-2.003,4.684-3.026,7.019c-1.438,3.281-2.969,6.521-4.446,9.786c-1.245,2.751-0.835,5.417,0.394,8.066
	c2.213,4.769,4.393,9.554,6.568,14.34c0.345,0.758,0.671,1.539,0.723,2.389c0.157,2.596-0.769,4.195-3.349,5.124
	c-3.767,1.355-7.184,3.46-10.907,4.892c-1.895,0.728-3.791,1.458-5.861,1.508c-0.013-0.278-0.038-0.557-0.038-0.835
	c-0.002-21.362-0.002-42.724,0-64.085C-0.038,67.719-0.014,67.44-0.001,67.161z"/>
<path fill-rule="evenodd" clip-rule="evenodd" fill="#333333" d="M148.999,0c-0.109,2.744,0.214,5.496-0.223,8.237
	c-0.345,2.165-1.472,3.813-3.366,4.76c-3.455,1.729-6.991,3.295-10.503,4.909c-2.17,0.997-4.321,2.056-6.549,2.904
	c-2.471,0.94-4.388,0.945-5.96-2.292c-1.74-3.582-3.614-7.096-5.164-10.772c-1.057-2.506-1.816-5.081-2.311-7.745
	c6.138-0.014,12.275-0.037,18.413-0.038C138.557-0.038,143.778-0.013,148.999,0z"/>
<path fill-rule="evenodd" clip-rule="evenodd" fill="#333333" d="M184.999,0c-0.316,2.838-1.298,5.479-2.385,8.091
	c-1.26,3.027-2.881,5.877-4.296,8.829c-0.396,0.826-0.696,1.706-1.168,2.484c-1.15,1.896-2.949,2.441-5.178,1.497
	c-3.044-1.29-6.052-2.667-9.063-4.033c-2.683-1.217-5.355-2.457-8.021-3.712c-2.228-1.049-3.615-2.81-3.688-5.274
	c-0.077-2.628-0.455-5.246-0.276-7.881c6.217-0.014,12.435-0.036,18.652-0.038C174.716-0.038,179.857-0.013,184.999,0z"/>
<path fill-rule="evenodd" clip-rule="evenodd" fill="#333333" d="M48.918-0.001c-0.117,2.626,0.159,5.253-0.2,7.887
	c-0.4,2.931-2.087,4.727-4.635,5.881c-4.646,2.105-9.298,4.198-13.963,6.261c-1.046,0.462-2.067,1.004-3.271,1.065
	c-3.04,0.154-3.874-0.961-4.948-3.271c-2.585-5.56-5.006-11.195-7.497-16.798C14.259,0.694,14.081,0.379,14.122,0
	c6.098-0.013,12.197-0.036,18.295-0.037C37.917-0.038,43.418-0.014,48.918-0.001z"/>
<path fill-rule="evenodd" clip-rule="evenodd" fill="#333333" d="M285.798-0.003c-0.298,1.886-1.317,3.497-2.056,5.205
	c-1.9,4.392-3.954,8.717-5.895,13.092c-1.272,2.871-3.699,3.375-6.486,2.38c-1.156-0.413-2.246-1.009-3.361-1.533
	c-3.646-1.712-7.274-3.454-11.064-4.843c-3.759-1.377-5.934-4.615-5.936-8.659C251,3.759,251.001,1.88,251.001,0
	c6.02-0.013,12.038-0.036,18.057-0.037C274.638-0.038,280.218-0.015,285.798-0.003z"/>
<path fill-rule="evenodd" clip-rule="evenodd" fill="#333333" d="M84.918,0c-0.361,3.002-1.553,5.744-2.711,8.488
	c-1.537,3.644-3.461,7.102-5.203,10.649c-0.959,1.955-2.549,2.684-4.55,1.892c-3.035-1.2-6.022-2.525-9.005-3.852
	c-2.986-1.327-5.94-2.723-8.911-4.084c-2.374-1.088-3.392-3.044-3.446-5.543c-0.055-2.516-0.011-5.034-0.011-7.551
	c9.287-0.013,18.573-0.028,27.86-0.036C80.935-0.039,82.926-0.014,84.918,0z"/>
<path fill-rule="evenodd" clip-rule="evenodd" fill="#333333" d="M249.079,0c0,1.598-0.083,3.201,0.018,4.793
	c0.326,5.172-2.25,8.43-6.839,9.937c-4.117,1.352-7.93,3.336-11.81,5.199c-1.059,0.508-2.096,1.085-3.343,1.198
	c-2.3,0.208-3.302-0.292-4.2-2.132c-2.494-5.109-5.26-10.105-7.077-15.522c-0.377-1.123-0.556-2.313-0.826-3.472
	c8.49-0.014,16.979-0.031,25.47-0.038C243.34-0.04,246.209-0.013,249.079,0z"/>
<path fill-rule="evenodd" clip-rule="evenodd" fill="#333333" d="M12.199,0.002c0.04,2.362,0.944,4.498,1.791,6.636
	c1.699,4.296,4.085,8.281,5.671,12.635c1.288,3.535,0.607,4.757-2.372,6.305c-5.582,2.901-11.182,5.794-17.288,7.5
	c0-3.753,0.009-7.507-0.002-11.26c-0.019-6.07-0.052-12.14-0.075-18.21c-0.002-0.519-1.721-4.116-1.666-4.63
	c0.165-1.557,2.571,0.766,4.136,0.898C5.664,0.153,8.931-0.039,12.199,0.002z"/>
<path fill-rule="evenodd" clip-rule="evenodd" fill="#333333" d="M299.943,64.279c-1.924,0.422-3.637,1.391-5.425,2.15
	c-4.219,1.792-8.385,3.709-12.591,5.534c-1.724,0.749-3.524,1.27-5.181-0.127c-0.967-0.814-1.444-1.988-1.84-3.17
	c-1.122-3.356-3.003-6.317-4.774-9.343c-1.215-2.078-1.829-4.361-2.119-6.773c-0.541-4.497,0.792-8.591,2.605-12.546
	c1.597-3.483,3.45-6.848,5.212-10.254c0.995-1.925,2.617-2.52,4.962-1.805c1.641,0.5,3.228,1.154,4.773,1.9
	c4.02,1.938,7.949,4.078,12.201,5.497c0.716,0.238,1.452,0.415,2.18,0.62c0.018,5.815,0.046,11.631,0.049,17.446
	C299.998,57.031,299.961,60.655,299.943,64.279z"/>
<path fill-rule="evenodd" clip-rule="evenodd" fill="#333333" d="M299.947,165.079c-3.155,0.433-6.073,1.611-8.931,2.927
	c-3.152,1.45-6.119,3.328-9.427,4.413c-3.026,0.993-5.055,0.321-6.381-2.631c-2.319-5.162-4.799-10.25-6.98-15.477
	c-1.323-3.172-0.848-6.123,0.503-9.095c2.222-4.891,4.348-9.828,6.662-14.676c1.206-2.528,2.834-3.235,5.594-2.134
	c3.772,1.505,7.399,3.372,11.122,5.007c2.51,1.102,5.032,2.223,7.836,2.386c0.019,3.266,0.054,6.532,0.051,9.798
	C299.991,152.092,299.964,158.586,299.947,165.079z"/>
<path fill-rule="evenodd" clip-rule="evenodd" fill="#333333" d="M299.946,265.159c-2.29,0.271-4.353,1.245-6.418,2.159
	c-3.388,1.498-6.724,3.111-10.09,4.655c-1.381,0.634-2.802,1.103-4.36,1.122c-1.385,0.018-2.37-0.596-3.107-1.685
	c-1.215-1.796-2.018-3.808-2.873-5.779c-1.489-3.434-3.078-6.821-4.597-10.24c-1.57-3.534-1.364-6.806,0.37-10.182
	c2.186-4.251,4.047-8.657,6.005-13.018c1.479-3.293,3.889-4.424,8.052-2.648c5.24,2.234,10.441,4.563,15.664,6.841
	c0.436,0.189,0.902,0.306,1.355,0.456c0.018,5.735,0.046,11.471,0.049,17.207C299.998,257.751,299.964,261.455,299.946,265.159z"/>
<path fill-rule="evenodd" clip-rule="evenodd" fill="#333333" d="M299.946,233.959c-3.485-1.464-6.975-2.921-10.455-4.396
	c-1.871-0.792-3.7-1.688-5.596-2.413c-4.499-1.721-4.978-4.294-3.189-8.1c2.001-4.259,3.853-8.585,5.878-12.831
	c1.143-2.395,2.022-4.824,1.402-7.578c-0.285-1.269-0.85-2.399-1.36-3.557c-2.073-4.703-4.224-9.373-6.295-14.077
	c-1.371-3.113-0.126-5.211,2.754-6.469c5.003-2.184,9.967-4.452,14.943-6.694c0.618-0.278,1.224-0.585,1.922-0.604
	c0.017,0.318,0.048,0.636,0.048,0.954c0.002,21.604,0.002,43.207,0,64.812C299.998,233.323,299.964,233.641,299.946,233.959z"/>
<path fill-rule="evenodd" clip-rule="evenodd" fill="#333333" d="M299.947,132.919c-2.545-0.18-4.903-1.079-7.191-2.08
	c-3.759-1.643-7.455-3.429-11.149-5.215c-1.746-0.845-2.338-2.662-1.61-4.856c0.892-2.689,2.214-5.203,3.302-7.813
	c1.438-3.452,3.398-6.681,4.577-10.232c0.791-2.379,0.393-4.747-0.728-7.051c-1.652-3.4-3.166-6.869-4.679-10.335
	c-0.842-1.931-1.876-3.772-2.47-5.823c-0.596-2.05,0.063-3.693,2.098-4.67c5.35-2.571,10.589-5.408,16.229-7.34
	c0.525-0.18,1.044-0.416,1.624-0.344c0.017,0.318,0.049,0.636,0.049,0.954c0.002,21.284,0.002,42.567,0,63.851
	C299.998,132.283,299.964,132.601,299.947,132.919z"/>
<path fill-rule="evenodd" clip-rule="evenodd" fill="#333333" d="M187.881,299.946c-0.19-2.017-1.006-3.84-1.769-5.676
	c-1.64-3.944-3.898-7.599-5.445-11.59c-0.513-1.326-0.826-2.666-0.701-4.083c0.15-1.711,1.313-2.902,2.688-3.412
	c3.538-1.313,6.273-4.072,9.902-5.192c3.275-1.01,6.542-1.458,9.964-0.895c5.41,0.892,10.206,3.271,14.895,5.924
	c2.995,1.693,3.604,4.12,2.146,7.447c-2.508,5.729-4.94,11.491-7.402,17.24c-0.03,0.071-0.027,0.157-0.039,0.236
	c-6.488,0.018-12.977,0.039-19.466,0.05C191.063,299.999,189.472,299.964,187.881,299.946z"/>
<path fill-rule="evenodd" clip-rule="evenodd" fill="#333333" d="M87.801,299.945c-1.07-3.217-2.546-6.266-3.862-9.382
	c-1.224-2.897-2.539-5.758-3.72-8.673c-1.279-3.158-0.605-5.688,3.092-7.142c2.371-0.933,4.302-2.561,6.548-3.677
	c4.551-2.262,9.286-2.572,14.188-1.604c4.972,0.981,9.419,3.271,13.616,5.927c2.777,1.758,3.02,3.443,1.83,6.747
	c-1.353,3.757-3.291,7.251-5.031,10.834c-1.08,2.223-1.891,4.551-2.421,6.971c-7.046,0.018-14.092,0.038-21.138,0.05
	C89.868,299.998,88.834,299.963,87.801,299.945z"/>
<path fill-rule="evenodd" clip-rule="evenodd" fill="#333333" d="M15.081,299.946c0.231-1.993,0.96-3.838,1.648-5.702
	c1.436-3.895,3.493-7.499,5.189-11.272c1.479-3.291,3.42-4.013,6.766-2.585c5.197,2.218,10.377,4.478,15.526,6.804
	c3.332,1.505,4.511,4.426,4.694,7.848c0.088,1.632,0.015,3.272,0.015,4.909c-2.271,0.018-4.542,0.048-6.813,0.049
	c-8.572,0.006-17.144,0.004-25.715,0.001C15.955,299.996,15.518,299.964,15.081,299.946z"/>
<path fill-rule="evenodd" clip-rule="evenodd" fill="#333333" d="M251,299.946c-0.454-2.687-0.152-5.303,0.808-7.835
	c1.141-3.01,3.294-5.193,6.272-6.177c4.674-1.542,9.059-3.715,13.554-5.648c3.017-1.298,5.248-0.267,6.513,2.754
	c1.045,2.494,2.301,4.901,3.467,7.344c1.272,2.664,2.344,5.4,3.079,8.267c0.112,0.437,0.14,0.86,0.146,1.298
	c-2.51,0.017-5.021,0.047-7.53,0.049c-8.332,0.006-16.665,0.003-24.997,0C251.875,299.996,251.438,299.964,251,299.946z"/>
<path fill-rule="evenodd" clip-rule="evenodd" fill="#333333" d="M215.241,299.949c0.221-1.898,1.246-3.505,1.92-5.236
	c1.414-3.635,2.878-7.25,4.364-10.855c0.782-1.897,1.896-3.513,4.101-3.959c1.444-0.293,2.798,0.163,4.024,0.778
	c4.602,2.307,9.486,3.952,14.132,6.138c3.124,1.47,4.928,2.764,5.102,7.288c0.075,1.946,0.188,3.893,0.196,5.843
	c-1.793,0.018-3.585,0.051-5.378,0.051c-9.05,0.006-18.1,0.004-27.149,0.001C216.115,299.997,215.678,299.966,215.241,299.949z"/>
<path fill-rule="evenodd" clip-rule="evenodd" fill="#333333" d="M115.161,299.948c0.119-1.95,0.924-3.711,1.683-5.445
	c1.819-4.157,3.769-8.258,5.681-12.374c0.97-2.088,3.063-2.948,5.308-2.053c2.625,1.047,5.203,2.213,7.789,3.355
	c3.055,1.353,6.102,2.725,9.143,4.108c2.847,1.295,4.084,3.659,4.219,6.654c0.086,1.913,0.016,3.834,0.016,5.752
	c-1.872,0.018-3.744,0.049-5.617,0.05c-8.97,0.006-17.94,0.004-26.911,0.001C116.035,299.997,115.598,299.965,115.161,299.948z"/>
<path fill-rule="evenodd" clip-rule="evenodd" fill="#333333" d="M150.921,299.946c-0.239-1.978-0.357-3.939,0.082-5.921
	c0.91-4.108,3.474-6.827,7.318-8.133c4.32-1.467,8.447-3.304,12.511-5.347c2.971-1.494,5.336-0.864,6.69,1.602
	c0.306,0.556,0.5,1.171,0.768,1.749c1.519,3.288,3.09,6.552,4.548,9.866c0.879,1.998,1.739,4.019,2.161,6.184
	c-1.792,0.018-3.585,0.05-5.378,0.05c-9.13,0.006-18.26,0.004-27.39,0.001C151.795,299.996,151.358,299.964,150.921,299.946z"/>
<path fill-rule="evenodd" clip-rule="evenodd" fill="#333333" d="M51.081,299.948c0.114-2.345-0.068-4.686,0.169-7.041
	c0.316-3.142,2.268-4.821,4.831-5.976c3.84-1.73,7.741-3.327,11.627-4.952c1.607-0.672,3.075-1.653,4.824-2.017
	c1.899-0.396,3.636,0.263,4.775,1.866c1.595,2.244,2.248,4.903,3.296,7.385c1.5,3.552,2.883,7.152,4.315,10.732
	c-1.952,0.018-3.904,0.049-5.856,0.05c-8.89,0.006-17.781,0.004-26.671,0.001C51.955,299.997,51.518,299.965,51.081,299.948z"/>
<path fill-rule="evenodd" clip-rule="evenodd" fill="#333333" d="M287.961,299.946c-0.939-3.896-2.546-7.536-4.256-11.138
	c-1.129-2.377-2.346-4.712-3.256-7.191c-1.292-3.52,0.21-5.813,3.261-6.957c3.674-1.378,7.109-3.245,10.689-4.807
	c1.794-0.782,3.626-1.429,5.547-1.813c0.018,4.276,0.034,8.552,0.053,12.828c0.024,5.595,0.687,13.136,0.703,18.731
	c0.006,2.151-1.12,0.656-3.281,0.473C294.27,299.806,291.113,300.109,287.961,299.946z"/>
<path fill-rule="evenodd" clip-rule="evenodd" fill="#333333" d="M250.291,115.409c2.418-0.273,4.387,0.991,6.441,1.911
	c4.548,2.035,9.067,4.131,13.604,6.191c2.755,1.25,3.682,3.483,2.507,6.268c-2.075,4.921-4.176,9.834-6.584,14.604
	c-1.395,2.759-2.134,5.613-1.277,8.652c0.396,1.407,1.08,2.744,1.722,4.069c2.242,4.63,4.31,9.34,6.258,14.095
	c1.127,2.751,0.71,3.81-1.865,5.445c-6.278,3.986-13.189,6.568-20.089,9.187c-0.604,0.229-1.158,0.071-1.748-0.086
	c-3.607-0.957-6.886-2.705-10.259-4.226c-4.432-1.998-8.776-4.181-13.305-5.972c-2.95-1.167-4.139-3.361-1.963-6.398
	c3.337-4.657,6.617-9.354,9.925-14.031c2.073-2.932,2.311-6.036,0.87-9.289c-2.261-5.104-4.545-10.199-6.793-15.309
	c-0.318-0.723-0.575-1.496-0.714-2.271c-0.385-2.165,0.631-3.63,2.529-4.51c3.98-1.845,7.963-3.689,11.983-5.442
	c2.187-0.954,4.258-2.189,6.625-2.73C248.879,115.401,249.583,115.447,250.291,115.409z"/>
<path fill-rule="evenodd" clip-rule="evenodd" fill="#333333" d="M26.611,273.941c-0.099-1.346,0.521-2.455,1.017-3.568
	c2.08-4.662,3.923-9.432,6.249-13.979c1.89-3.696,1.846-7.409,0.068-11.041c-2.406-4.912-4.504-9.957-6.711-14.955
	c-1.346-3.05-0.376-5.273,2.712-6.645c5.577-2.476,11.145-4.973,16.693-7.51c2.331-1.065,4.519-0.771,6.763,0.272
	c5.606,2.606,11.218,5.206,16.876,7.696c3.016,1.327,3.411,3.377,2.247,6.135c-1.613,3.82-3.481,7.532-5.119,11.343
	c-0.832,1.937-1.961,3.73-2.504,5.813c-0.817,3.137-0.396,6.126,0.938,8.959c2.327,4.946,4.488,9.965,6.707,14.958
	c1.28,2.882,0.515,5.136-2.338,6.383c-4.639,2.027-9.273,4.065-13.898,6.127c-2.107,0.939-4.152,1.982-6.46,2.447
	c-1.061,0.214-1.792-0.256-2.592-0.592c-4.151-1.746-8.299-3.507-12.399-5.369c-2.395-1.088-4.679-2.42-6.838-3.929
	C27.174,275.894,26.398,275.126,26.611,273.941z"/>
<path fill-rule="evenodd" clip-rule="evenodd" fill="#333333" d="M249.207,15.985c5.091,0.074,8.837,1.06,12.412,2.728
	c2.75,1.284,5.43,2.711,8.033,4.269c4.044,2.419,4.5,3.834,2.524,8.241c-1.092,2.438-2.461,4.749-3.65,7.145
	c-1.481,2.984-2.329,6.128-2.691,9.469c-0.529,4.894,0.682,9.36,2.641,13.75c1.317,2.953,3.232,5.587,4.438,8.595
	c1.01,2.518,0.869,4.407-0.602,5.49c-1.414,1.041-2.906,1.979-4.538,2.65c-2.991,1.229-5.909,2.616-8.799,4.059
	c-1.824,0.911-3.774,1.515-5.616,2.367c-2.371,1.097-4.687,0.801-6.9-0.213c-5.283-2.422-10.735-4.518-15.695-7.591
	c-3.209-1.988-3.764-3.745-2.57-7.525c0.986-3.124,2.683-5.951,4.135-8.879c1.803-3.635,2.639-7.527,2.321-11.579
	c-0.312-3.969-1.578-7.7-3.309-11.272c-1.337-2.76-2.769-5.471-3.839-8.358c-0.914-2.463-0.481-4.226,1.771-5.65
	c4.464-2.825,9.139-5.25,14.228-6.739C245.705,16.293,247.995,15.912,249.207,15.985z"/>
<path fill-rule="evenodd" clip-rule="evenodd" fill="#333333" d="M50.519,105.806c0.941-4.366,0.251-8.825,0.813-13.214
	c0.371-2.896,2.02-4.941,4.556-6.18c6.945-3.391,14.123-6.279,21.054-9.708c2.56-1.267,4.385-0.623,5.933,1.57
	c4.359,6.178,8.713,12.358,13.195,18.448c1.51,2.051,1.491,4.747,0.023,6.847c-2.982,4.269-5.99,8.52-9.004,12.767
	c-3.683,5.188-7.413,10.343-11.065,15.552c-2.141,3.054-4.175,2.357-6.254,0.014c-3.257-3.671-6.5-7.368-10.139-10.664
	c-2.881-2.609-5.704-5.23-7.479-8.755C51.099,110.396,50.431,108.196,50.519,105.806z"/>
<path fill-rule="evenodd" clip-rule="evenodd" fill="#333333" d="M149.001,97.679c-0.002,2.589,0.207,5.162,0.396,7.743
	c0.258,3.547-1.039,6.803-3.125,9.702c-1.878,2.611-4.349,4.619-6.689,6.785c-3.104,2.871-6.129,5.845-8.945,9.018
	c-0.843,0.949-1.873,1.781-3.124,2.136c-1.967,0.559-3.246-0.685-4.235-2.05c-2.702-3.733-5.269-7.563-7.908-11.341
	c-2.71-3.882-5.444-7.747-8.165-11.622c-1.165-1.659-2.401-3.274-3.464-4.997c-1.415-2.293-1.101-4.607,0.398-6.74
	c3.892-5.537,7.855-11.023,11.742-16.563c2.526-3.601,5.52-3.84,9.265-2.035c5.596,2.696,11.253,5.264,16.88,7.895
	c1.402,0.656,2.856,1.203,4.141,2.104c2.013,1.412,2.734,3.441,2.822,5.767C149.043,94.878,149,96.279,149.001,97.679z"/>
<path fill-rule="evenodd" clip-rule="evenodd" fill="#333333" d="M151.161,204.81c-0.094-1.346-0.229-2.979-0.138-4.519
	c0.152-2.537-0.28-5.056,0.091-7.596c0.438-2.999,2.247-4.826,4.795-5.939c6.135-2.681,12.237-5.426,18.309-8.243
	c1.406-0.653,2.808-1.29,4.391-1.443c2.636-0.255,4.35,1.221,5.649,3.16c3.078,4.594,6.298,9.087,9.463,13.619
	c0.954,1.368,2.072,2.619,2.824,4.134c1,2.014,0.867,3.952-0.388,5.751c-3.617,5.189-7.302,10.331-10.93,15.514
	c-0.569,0.813-1.133,1.63-1.714,2.436c-2.484,3.442-4.62,3.099-7.589,1.816c-5.191-2.243-10.368-4.526-15.496-6.91
	c-2.305-1.071-4.78-1.8-6.862-3.345c-1.597-1.186-2.282-2.811-2.394-4.714C151.106,207.374,151.161,206.212,151.161,204.81z"/>
<path fill-rule="evenodd" clip-rule="evenodd" fill="#333333" d="M249.081,195.307c0.003,4.536-0.227,8.94-0.289,13.35
	c-0.042,2.993-2.087,4.831-4.635,6.012c-4.229,1.958-8.512,3.801-12.77,5.698c-2.366,1.054-4.704,2.177-7.099,3.161
	c-2.383,0.979-4.784,1.08-6.841-0.752c-1.307-1.166-2.127-2.764-3.146-4.178c-2.812-3.902-5.587-7.832-8.311-11.796
	c-1.024-1.491-2.411-2.77-2.829-4.646c-0.465-2.088,0.025-3.88,1.318-5.59c2.206-2.918,4.313-5.911,6.42-8.902
	c1.809-2.569,3.543-5.19,5.338-7.77c2.01-2.886,4.874-3.661,8.206-2.153c3.773,1.708,7.516,3.487,11.26,5.259
	c2.127,1.007,4.31,1.873,6.502,2.723c3.394,1.314,6.062,3.336,6.771,7.207C249.13,193.771,249.01,194.602,249.081,195.307z"/>
<path fill-rule="evenodd" clip-rule="evenodd" fill="#333333" d="M99.897,161.719c-1.628,0.195-2.795-0.935-3.777-2.014
	c-1.149-1.265-2.375-2.463-3.488-3.771c-1.782-2.093-3.787-3.995-5.685-5.991c-2.887-3.035-5.795-6.05-8.632-9.132
	c-2.17-2.357-2-4.836,0.109-7.78c3.915-5.461,7.716-11.004,11.577-16.504c2.009-2.862,4.052-5.7,6.065-8.56
	c0.685-0.974,1.293-1.998,2.26-2.746c1.2-0.928,2.466-0.907,3.551,0.14c1.564,1.509,2.613,3.413,3.856,5.16
	c4.893,6.878,9.745,13.785,14.533,20.736c1.005,1.46,2.166,2.844,2.75,4.599c0.462,1.39,0.195,2.605-0.512,3.742
	c-0.542,0.871-1.227,1.669-1.936,2.417c-2.391,2.52-4.845,4.979-7.231,7.504c-3.396,3.592-6.743,7.231-10.136,10.826
	C102.353,161.242,101.3,161.791,99.897,161.719z"/>
<path fill-rule="evenodd" clip-rule="evenodd" fill="#333333" d="M145.061,150.749c1.77-0.187,3.491,0.095,5.194,0.547
	c1.302,0.346,2.51-0.278,3.755-0.446c4.282-0.578,7.985,0.553,11.309,3.284c3.464,2.847,5.572,6.702,7.976,10.346
	c0.855,1.296,1.678,2.608,2.379,4.002c2.051,4.08,0.859,5.742-2.351,7.421c-5.823,3.044-11.852,5.678-17.83,8.408
	c-1.789,0.817-3.591,1.434-5.617,1.447c-1.75,0.012-3.313-0.527-4.825-1.204c-4.471-2.002-8.888-4.124-13.35-6.147
	c-1.421-0.644-2.805-1.317-4.047-2.272c-1.03-0.792-1.375-1.789-1.129-3.049c0.316-1.624,0.955-3.151,1.729-4.57
	c1.54-2.826,2.273-5.954,3.567-8.862c2.079-4.676,5.383-7.967,10.613-8.882C143.284,150.621,144.184,150.749,145.061,150.749z"/>
<path fill-rule="evenodd" clip-rule="evenodd" fill="#333333" d="M50.185,51.08c3.158,0,6.315-0.002,9.473,0.001
	c2.754,0.003,4.872,1.153,6.457,3.424c2.892,4.143,5.852,8.237,8.767,12.364c0.62,0.877,1.212,1.782,1.733,2.719
	c1.262,2.27,0.514,4.238-1.937,5.332c-3.272,1.46-6.534,2.943-9.796,4.423c-3.627,1.646-7.297,3.203-10.86,4.977
	c-3.163,1.574-6.144,1.17-9.176-0.237c-5.063-2.35-10.154-4.641-15.203-7.021c-2.486-1.172-3.838-3.591-2.599-6.309
	c1.224-2.683,2.384-5.394,3.609-8.076c1.21-2.648,2.489-5.265,3.696-7.915c1.181-2.594,3.255-3.677,6.002-3.682
	C43.629,51.076,46.907,51.08,50.185,51.08z"/>
<path fill-rule="evenodd" clip-rule="evenodd" fill="#333333" d="M250.141,249.8c-2.918,0-5.843-0.111-8.755,0.03
	c-3.131,0.151-5.471-1.174-7.37-3.473c-2.661-3.22-5.227-6.518-7.502-10.026c-1.063-1.637-2.196-3.247-3.063-4.986
	c-1.349-2.708-0.531-4.178,2.249-5.469c4.075-1.893,8.176-3.729,12.277-5.563c3.348-1.497,6.699-2.985,10.074-4.417
	c1.85-0.785,3.709-0.363,5.445,0.386c5.561,2.402,11.115,4.825,16.623,7.346c3.227,1.477,3.979,3.792,2.542,7.077
	c-2.189,5.001-4.315,10.031-6.596,14.991c-1.205,2.62-3.326,4.109-6.328,4.104C256.539,249.796,253.34,249.8,250.141,249.8z"/>
<path fill-rule="evenodd" clip-rule="evenodd" fill="#333333" d="M173.235,73.058c0.113,1.386-0.625,2.109-1.7,2.784
	c-6.182,3.883-12.807,6.78-19.69,9.154c-1.186,0.409-2.231,0.26-3.368,0.039c-3.255-0.634-6.091-2.306-9.081-3.597
	c-4.504-1.946-8.821-4.295-13.372-6.145c-2.366-0.962-3.54-2.747-3.156-4.649c0.284-1.407,1.206-2.494,1.988-3.638
	c2.603-3.809,5.335-7.534,7.809-11.424c2.023-3.182,4.747-4.583,8.469-4.525c5.836,0.091,11.677,0.109,17.512-0.008
	c3.441-0.069,5.946,1.72,7.321,4.858c1.965,4.486,4.111,8.892,6.146,13.348C172.67,70.475,173.381,71.673,173.235,73.058z"/>
<path fill-rule="evenodd" clip-rule="evenodd" fill="#333333" d="M151.257,249.8c-2.918,0-5.84,0.079-8.755-0.026
	c-2.193-0.079-4.324-0.499-6.189-1.852c-1.154-0.837-1.861-2.007-2.489-3.17c-2.658-4.919-4.841-10.06-6.521-15.39
	c-0.773-2.451,0.097-4.152,2.414-5.309c5.807-2.899,11.696-5.624,17.688-8.115c2.526-1.05,4.93-0.235,7.255,0.813
	c6.024,2.721,12.046,5.451,18.057,8.204c1.045,0.479,2.065,1.03,3.037,1.644c1.688,1.066,2.07,3.127,0.834,5.059
	c-1.435,2.24-3.001,4.396-4.527,6.576c-1.914,2.734-3.833,5.464-5.771,8.18c-1.619,2.271-3.829,3.406-6.634,3.39
	C156.856,249.786,154.057,249.8,151.257,249.8z"/>
<path fill-rule="evenodd" clip-rule="evenodd" fill="#333333" d="M49.801,151.16c2.599,0,5.197,0,7.796,0
	c4.374,0,7.221,2.026,8.921,6.083c1.97,4.7,4.153,9.311,6.104,14.019c1.158,2.795,0.782,4.402-2.118,5.853
	c-5.819,2.91-11.666,5.743-17.77,8.019c-1.815,0.676-3.588,0.863-5.453,0.103c-4.798-1.955-9.631-3.831-14.262-6.166
	c-1.812-0.914-3.557-1.967-5.302-3.006c-1.177-0.701-1.557-2.294-0.938-4.112c0.462-1.354,1.035-2.675,1.628-3.979
	c1.882-4.139,3.826-8.249,5.689-12.396c1.407-3.132,3.98-4.317,7.189-4.402C44.123,151.102,46.963,151.16,49.801,151.16z"/>
<path fill-rule="evenodd" clip-rule="evenodd" fill="#333333" d="M150.012,251.96c2.72,0,5.439,0,8.159,0
	c4.583,0,6.416,1.289,8.233,5.474c1.728,3.977,3.599,7.891,5.407,11.832c0.582,1.269,1.229,2.532,1.405,3.925
	c0.252,1.984-0.911,3.784-2.873,4.661c-5.788,2.587-11.574,5.18-17.37,7.749c-2.097,0.93-4.157,0.896-6.281-0.103
	c-4.908-2.308-10.039-4.128-14.825-6.706c-1.299-0.699-2.592-1.414-3.85-2.182c-1.312-0.801-1.675-2.161-1.16-3.909
	c0.803-2.729,2.216-5.197,3.332-7.792c1.259-2.928,2.687-5.782,3.95-8.708c1.318-3.054,3.781-4.17,6.874-4.229
	C144.012,251.915,147.013,251.96,150.012,251.96z"/>
<path fill-rule="evenodd" clip-rule="evenodd" fill="#333333" d="M149.928,48.92c-2.959,0-5.918,0.025-8.877-0.006
	c-4.596-0.048-5.696-1.644-7.331-4.993c-1.816-3.722-3.365-7.574-5.025-11.372c-0.641-1.464-1.157-2.981-1.479-4.54
	c-0.329-1.595,0.285-2.977,1.598-3.875c5.757-3.938,11.743-7.472,18.836-8.289c4.52-0.521,8.911,0.444,13.026,2.346
	c3.547,1.64,7.047,3.395,10.252,5.673c1.559,1.108,2.092,2.568,1.707,4.467c-0.433,2.131-1.308,4.099-2.136,6.075
	c-1.354,3.231-2.873,6.394-4.274,9.605c-1.515,3.467-4.064,5.121-7.901,4.933C155.532,48.81,152.727,48.92,149.928,48.92z"/>
<path fill-rule="evenodd" clip-rule="evenodd" fill="#333333" d="M53.931,48.95c-2.535-0.225-5.149,0.328-7.796,0.63
	c-4.825,0.55-8.828-1.097-11.871-4.987c-2.657-3.397-3.917-7.45-5.495-11.357c-0.671-1.664-1.211-3.36-1.565-5.128
	c-0.337-1.685,0.154-3.056,1.491-3.981c5.143-3.561,10.616-6.512,16.802-7.749c4.747-0.948,9.411-0.306,13.918,1.536
	c3.666,1.499,7.161,3.315,10.579,5.3c0.912,0.53,1.681,1.218,2.364,2c0.902,1.033,0.701,2.266,0.373,3.41
	c-0.706,2.458-1.949,4.707-2.963,7.044c-1.33,3.066-2.371,6.263-4.139,9.134c-1.432,2.325-3.423,3.604-6.179,3.921
	C57.651,48.931,55.868,48.829,53.931,48.95z"/>
<path fill-rule="evenodd" clip-rule="evenodd" fill="#333333" d="M227.184,274.391c0.128-2.782,1.187-4.827,1.935-6.959
	c0.527-1.503,1.129-2.979,1.7-4.467c1.548-4.029,3.696-7.593,7.588-9.811c1.406-0.801,2.951-1.287,4.528-1.392
	c2.178-0.144,4.395-0.227,6.526,0.438c0.851,0.266,1.63,0.115,2.444-0.094c2.616-0.671,5.234-0.85,7.877-0.072
	c3.394,0.998,5.543,3.408,7.35,6.263c1.985,3.139,2.789,6.766,4.256,10.119c0.557,1.271,1.158,2.536,1.482,3.9
	c0.598,2.515,0.264,3.306-1.813,4.687c-4.179,2.777-8.582,5.213-13.396,6.779c-5.504,1.791-10.952,1.527-16.318-0.547
	c-4.136-1.6-7.941-3.89-11.906-5.846C228.069,276.717,226.893,275.772,227.184,274.391z"/>
<path fill-rule="evenodd" clip-rule="evenodd" fill="#333333" d="M14.606,100.143c-0.19-2.502,1.008-4.635,2.039-6.768
	c1.838-3.804,3.66-7.613,5.36-11.481c1.308-2.975,4.068-3.818,7.418-2.27c1.559,0.721,3.094,1.497,4.611,2.302
	c2.792,1.48,5.736,2.59,8.686,3.696c4.539,1.701,7,6.233,6.278,11.095c-0.308,2.075-0.199,4.22,0.234,6.309
	c0.799,3.856-1.004,8.235-4.215,10.504c-2.177,1.539-4.548,2.587-7.064,3.432c-3.098,1.041-5.917,2.767-8.963,3.93
	c-2.777,1.06-5.144,0.891-6.737-2.054c-0.588-1.088-1.167-2.185-1.692-3.304c-1.42-3.028-2.844-6.056-4.197-9.114
	C15.481,104.426,14.436,102.458,14.606,100.143z"/>
<path fill-rule="evenodd" clip-rule="evenodd" fill="#333333" d="M48.942,197.016c-0.292,2.585,0.117,5.113,0.378,7.68
	c0.423,4.163-1.442,7.837-5.811,10.267c-2.775,1.543-5.934,2.112-8.733,3.589c-1.87,0.987-3.81,1.841-5.708,2.776
	c-3.113,1.535-5.758,0.679-7.097-2.343c-2.258-5.098-4.661-10.13-6.965-15.206c-0.867-1.911-0.784-3.773,0.118-5.747
	c2.563-5.614,4.988-11.292,7.445-16.954c0.747-1.722,2.446-2.564,4.338-1.901c1.613,0.566,3.178,1.281,4.735,1.993
	c4.305,1.97,8.612,3.936,12.884,5.975c2.614,1.248,4.103,3.298,4.177,6.306C48.732,194.636,49.041,195.814,48.942,197.016z"/>
<path fill-rule="evenodd" clip-rule="evenodd" fill="#333333" d="M84.44,200.844c0.253,3.482-1.106,6.572-2.445,9.632
	c-1.245,2.846-2.637,5.632-4.072,8.388c-0.791,1.519-1.736,2.995-3.689,3.262c-1.456,0.199-2.789-0.316-4.008-0.941
	c-4.368-2.239-8.906-4.073-13.425-5.972c-3.754-1.577-6-4.587-5.907-8.739c0.102-4.587,0.083-9.175,0.214-13.759
	c0.092-3.208,2.278-4.912,4.961-6.124c5.008-2.264,10.007-4.547,15.026-6.787c1.306-0.582,2.645-1.139,4.142-0.566
	c0.788,0.302,1.417,0.776,1.781,1.512c1.504,3.036,3.037,6.061,4.436,9.146c1.199,2.642,2.333,5.319,2.855,8.213
	C84.476,199.03,84.354,199.937,84.44,200.844z"/>
<path fill-rule="evenodd" clip-rule="evenodd" fill="#333333" d="M251.024,205.679c0.447-3.616,0.048-7.894,0.242-12.154
	c0.17-3.73,2.57-5.853,5.776-7.211c4.655-1.973,9.229-4.122,13.779-6.322c0.872-0.421,1.772-0.725,2.703-0.933
	c1.623-0.363,3.148,0.438,4.001,2.128c1.706,3.383,3.162,6.879,4.659,10.356c0.85,1.976,1.604,3.998,2.561,5.92
	c1.146,2.303,1.018,4.5-0.037,6.768c-2.317,4.983-4.624,9.974-6.882,14.986c-1.431,3.177-3.566,3.548-6.53,2.214
	c-2.358-1.062-4.718-2.119-7.073-3.187c-2.723-1.233-5.408-2.559-8.171-3.695C252.32,213.014,250.893,210.163,251.024,205.679z"/>
<path fill-rule="evenodd" clip-rule="evenodd" fill="#333333" d="M174.104,78.678c1.04-0.127,1.761,0.43,2.356,1.355
	c3.017,4.677,5.383,9.672,7.343,14.868c0.591,1.566,1.144,3.146,1.729,4.714c0.144,0.386,0.222,0.738,0.064,1.153
	c-2.618,6.904-5.392,13.736-9.209,20.091c-0.656,1.091-1.447,1.416-2.722,1.12c-2.081-0.483-3.896-1.601-5.813-2.462
	c-3.891-1.748-7.685-3.717-11.613-5.371c-2.951-1.244-4.306-3.575-5.008-6.41c-0.563-2.273-0.875-4.632-0.758-6.972
	c0.174-3.491,0.506-6.994,1.985-10.236c0.986-2.16,2.434-3.807,4.774-4.752c3.396-1.37,6.666-3.05,10.003-4.568
	c1.773-0.807,3.581-1.539,5.36-2.334C173.062,78.667,173.528,78.689,174.104,78.678z"/>
<path fill-rule="evenodd" clip-rule="evenodd" fill="#333333" d="M149,198.265c0.146,1.525,0.128,3.417,0.104,5.266
	c-0.027,1.994,0.184,4.058-0.402,6.047c-0.935,3.177-3.394,4.692-6.227,5.791c-3.942,1.529-7.744,3.361-11.557,5.176
	c-1.146,0.546-2.272,1.224-3.547,1.394c-2.667,0.357-4.184-0.487-5.315-3.026c-2.206-4.948-4.29-9.952-6.537-14.882
	c-1.173-2.572-0.98-4.949,0.194-7.452c2.3-4.904,4.434-9.886,6.714-14.8c1.311-2.824,2.949-3.462,5.824-2.195
	c4.665,2.055,9.282,4.219,13.897,6.385c1.609,0.756,3.337,1.254,4.724,2.502c1.528,1.375,2.029,3.104,2.116,5.019
	C149.054,194.963,149,196.444,149,198.265z"/>
<path fill-rule="evenodd" clip-rule="evenodd" fill="#333333" d="M249.087,95.046c-0.015,3.427,0.021,6.409,0.396,9.423
	c0.567,4.561-1.666,7.639-6.09,10.17c-2.19,1.253-4.637,1.915-6.94,2.905c-2.706,1.163-5.321,2.537-8.017,3.726
	c-2.764,1.219-4.646,0.53-5.957-2.223c-1.813-3.811-3.538-7.665-5.268-11.516c-0.765-1.702-1.667-3.351-2.181-5.158
	c-0.75-2.637,0.122-5.04,1.183-7.378c1.954-4.306,3.967-8.584,5.949-12.876c0.478-1.033,1.156-1.913,2.016-2.644
	c1.077-0.917,2.346-0.617,3.543-0.403c0.731,0.131,1.44,0.469,2.118,0.798c4.157,2.024,8.285,4.093,12.659,5.657
	c2.552,0.912,4.743,2.468,5.861,5.141C249.006,92.212,249.17,93.818,249.087,95.046z"/>
<path fill-rule="evenodd" clip-rule="evenodd" fill="#333333" d="M273.501,121.375c-1.706,0.277-3.051-0.678-4.432-1.307
	c-4.6-2.096-9.267-4.05-13.771-6.353c-2.684-1.372-4.002-3.606-4.041-6.548c-0.063-4.735-0.016-9.471-0.018-14.207
	c-0.001-2.739,1.26-4.821,3.648-5.986c4.762-2.321,9.617-4.447,14.425-6.673c1.48-0.686,2.893-1.457,4.629-1.415
	c1.429,0.035,2.442,0.632,3.217,1.726c1.276,1.807,1.977,3.911,2.93,5.884c1.504,3.116,2.85,6.31,4.384,9.411
	c1.56,3.151,1.104,6.125-0.328,9.159c-2.106,4.466-4.066,9.002-6.183,13.464C277.098,120.35,275.781,121.723,273.501,121.375z"/>
<path fill-rule="evenodd" clip-rule="evenodd" fill="#333333" d="M98.84,249.764c0,2.92,0.095,5.844-0.031,8.758
	c-0.097,2.224-0.467,4.432-1.944,6.271c-1.29,1.606-3.055,2.548-4.851,3.386c-3.426,1.6-6.904,3.091-10.451,4.409
	c-0.816,0.304-1.668,0.606-2.525,0.685c-1.241,0.112-2.266-0.486-2.931-1.53c-2.986-4.684-5.832-9.448-7.326-14.861
	c-1.845-6.683-1.026-13.021,2.682-18.916c1.171-1.861,2.218-3.759,3.001-5.825c1.268-3.349,4.083-4.366,7.621-2.824
	c4.24,1.849,8.479,3.699,12.683,5.626c2.653,1.217,4.116,3.282,4.08,6.305C98.814,244.084,98.84,246.924,98.84,249.764z"/>
<path fill-rule="evenodd" clip-rule="evenodd" fill="#333333" d="M101,253.832c0.12-2.4-0.267-5.465-0.626-8.557
	c-0.331-2.847,0.594-5.569,2.543-7.849c2.603-3.044,6.017-4.75,9.678-6.104c2.091-0.773,4.135-1.677,6.229-2.438
	c2.511-0.914,3.445-0.753,4.937,1.372c3.117,4.44,6.042,9.023,7.215,14.434c0.962,4.436,0.785,8.873-0.571,13.21
	c-1.383,4.426-3.156,8.688-5.753,12.57c-1.83,2.735-4.025,3.331-7.108,1.9c-3.108-1.441-6.279-2.744-9.405-4.146
	c-1.71-0.767-3.385-1.617-4.847-2.816c-1.844-1.513-2.127-3.669-2.269-5.826C100.913,257.909,101,256.224,101,253.832z"/>
<path fill-rule="evenodd" clip-rule="evenodd" fill="#333333" d="M231.822,49.557c0.057,6.333-2.127,11.411-5.04,16.251
	c-0.902,1.499-1.738,3.035-2.731,4.485c-1.094,1.597-2.637,2.064-4.279,1.574c-5.146-1.535-10.372-2.967-14.676-6.429
	c-2.748-2.21-4.249-5.118-4.485-8.639c-0.131-1.957,0.054-3.897,0.613-5.791c0.434-1.467-0.24-2.836-0.45-4.232
	c-0.911-6.049,1.175-10.078,5.833-13.197c3.918-2.624,8.397-4,12.855-5.354c2.355-0.715,3.644-0.159,4.985,1.902
	c2.879,4.42,5.495,8.972,6.727,14.174C231.624,46.204,231.958,48.123,231.822,49.557z"/>
<path fill-rule="evenodd" clip-rule="evenodd" fill="#333333" d="M198.92,46.133c-0.275,2.761,0.394,6.117,0.857,9.513
	c0.402,2.944-0.602,5.652-2.646,7.908c-2.59,2.856-5.866,4.617-9.413,5.948c-2.313,0.869-4.645,1.689-7.033,2.336
	c-3.318,0.9-4.397-0.241-5.629-2.568c-2.107-3.983-3.813-8.16-5.451-12.362c-0.831-2.132-1.484-4.293-1.631-6.57
	c-0.161-2.509,0.461-4.881,1.388-7.208c1.739-4.37,3.688-8.64,5.96-12.757c1.473-2.667,2.87-3.277,5.721-2.128
	c5.059,2.039,10.132,4.074,14.906,6.738c2.107,1.176,2.879,3.227,2.959,5.541C198.966,42.163,198.92,43.804,198.92,46.133z"/>
<path fill-rule="evenodd" clip-rule="evenodd" fill="#333333" d="M150.56,149c-2.6,0-5.199-0.022-7.799,0.005
	c-3.764,0.041-7.054-1.233-9.802-3.736c-1.715-1.562-3.038-3.468-3.715-5.757c-0.556-1.875,0.127-3.355,1.392-4.664
	c2.693-2.785,5.41-5.547,8.091-8.343c2.954-3.081,5.863-6.207,8.823-9.282c1.645-1.71,3.868-2.073,6.042-1.091
	c5.741,2.595,11.524,5.104,17.206,7.824c2.208,1.057,3.17,2.758,2.051,5.605c-0.887,2.258-1.931,4.456-2.949,6.66
	c-1.374,2.971-2.886,5.882-4.161,8.893c-1.213,2.861-3.516,3.775-6.299,3.864C156.482,149.073,153.52,149,150.56,149z"/>
<path fill-rule="evenodd" clip-rule="evenodd" fill="#333333" d="M55.562,148.993c-1.076-0.053-2.464,0.065-3.86-0.198
	c-1.259-0.238-2.531,0.105-3.785,0.338c-2.568,0.475-5.127,0.618-7.687-0.107c-2.674-0.758-4.562-2.557-6.21-4.649
	c-2.458-3.12-3.712-6.835-5.048-10.502c-0.532-1.459-1.062-2.915-1.5-4.411c-1.132-3.861,0.658-5.188,2.915-6.284
	c4.978-2.418,10.076-4.585,15.099-6.911c2.733-1.266,4.929-0.458,6.91,1.524c5.003,5.008,10.015,10.008,15.011,15.024
	c0.617,0.619,1.184,1.293,1.724,1.981c1.327,1.688,1.63,3.582,0.672,5.495c-1.14,2.274-2.304,4.555-4.217,6.338
	c-1.438,1.34-3.123,1.95-5.057,2.156C58.975,148.953,57.43,149.006,55.562,148.993z"/>
<path fill-rule="evenodd" clip-rule="evenodd" fill="#333333" d="M200.629,252.376c-0.255-4.33,0.547-8.584,0.726-12.875
	c0.086-2.062,1.375-3.525,3.23-4.235c3.505-1.341,6.805-3.134,10.295-4.497c3.127-1.222,4.345-0.875,6.291,1.875
	c3.469,4.9,6.914,9.818,10.375,14.724c1.57,2.226,1.901,4.498,0.711,7.067c-2.276,4.914-4.177,9.999-6.699,14.804
	c-0.39,0.74-0.789,1.478-1.222,2.193c-1.078,1.784-2.566,2.332-4.602,1.657c-2.912-0.966-5.638-2.42-8.598-3.268
	c-1.926-0.552-3.707-1.434-5.43-2.46c-2.568-1.531-3.678-3.978-4.383-6.706C200.622,257.93,200.487,255.154,200.629,252.376z"/>
<path fill-rule="evenodd" clip-rule="evenodd" fill="#333333" d="M98.84,44.747c-0.166,3.305,0.424,7.003,0.237,10.716
	c-0.077,1.509-0.146,3.021-0.293,4.523c-0.342,3.472-2.446,5.597-5.485,6.936c-2.442,1.076-4.886,2.154-7.422,3.001
	c-2.188,0.73-4.221,0.515-6.108-0.891c-0.694-0.517-1.273-1.176-1.625-1.89c-1.073-2.18-2.901-3.68-4.501-5.396
	c-1.694-1.816-3.096-3.837-4.065-6.145c-1.666-3.965-1.525-7.989-0.433-12.048c1.138-4.232,3.143-8.093,5.153-11.949
	c0.202-0.388,0.444-0.756,0.65-1.143c1.504-2.828,3.521-3.555,6.453-2.249c4.01,1.785,8.011,3.591,11.92,5.592
	c1.094,0.56,2.291,0.88,3.29,1.677c1.486,1.185,2.177,2.697,2.224,4.539C98.869,41.458,98.84,42.898,98.84,44.747z"/>
<path fill-rule="evenodd" clip-rule="evenodd" fill="#333333" d="M198.92,246.799c-0.025,2.987,0.183,5.932,0.618,8.911
	c0.666,4.551-1.039,8.355-4.865,11.101c-2.464,1.768-5.204,2.908-8.105,3.691c-1.28,0.346-2.438,0.944-3.604,1.545
	c-1.451,0.749-2.897,1.471-4.637,1.054c-1.121-0.27-2.063-0.859-2.577-1.808c-2.813-5.184-5.505-10.43-7.065-16.165
	c-1.163-4.278-0.268-8.197,2.096-11.844c2.017-3.11,4.348-5.982,6.806-8.753c0.475-0.535,0.936-1.084,1.395-1.633
	c1.704-2.037,3.817-2.714,6.412-2.066c5.019,1.252,9.365,3.559,12.49,7.81c0.747,1.017,1.08,2.192,1.047,3.48
	C198.89,243.68,198.92,245.24,198.92,246.799z"/>
<path fill-rule="evenodd" clip-rule="evenodd" fill="#333333" d="M201.081,154.078c0.049-2.67-0.213-5.286-0.631-7.943
	c-0.765-4.857,1.047-8.801,5.244-11.583c2.036-1.35,4.154-2.495,6.486-3.21c2.408-0.738,4.556-2.073,6.926-2.915
	c2.873-1.02,4.349-0.504,5.782,2.16c1.781,3.311,2.915,6.906,4.617,10.25c0.811,1.593,1.858,3.054,2.426,4.785
	c1.2,3.661,0.597,7.042-1.663,10.051c-3.153,4.2-6.122,8.526-9.163,12.805c-1.895,2.667-3.539,3.182-6.724,2.174
	c-4.984-1.577-8.986-4.573-12.151-8.684c-0.776-1.008-1.229-2.214-1.165-3.574C201.132,156.959,201.081,155.517,201.081,154.078z"/>
<path fill-rule="evenodd" clip-rule="evenodd" fill="#333333" d="M100.997,52.32c0.157-2.362-0.25-4.655-0.619-6.984
	c-0.698-4.415,0.829-8.097,4.447-10.797c2.684-2.002,5.709-3.309,8.945-4.151c1.519-0.396,2.864-1.202,4.273-1.861
	c3.506-1.641,5.637-0.799,7.192,2.7c2.104,4.735,4.249,9.452,6.409,14.162c1.398,3.049,0.987,5.824-0.941,8.533
	c-2.604,3.658-5.086,7.401-7.64,11.094c-0.903,1.306-1.747,2.682-2.827,3.829c-1.399,1.486-3.265,2.125-5.231,1.38
	c-3.677-1.392-7.516-2.463-10.759-4.819c-1.603-1.165-2.452-2.862-2.732-4.758C101.106,57.894,100.832,55.116,100.997,52.32z"/>
<path fill-rule="evenodd" clip-rule="evenodd" fill="#333333" d="M199.152,143.327c-0.478,4.51-0.04,9.352-0.273,14.174
	c-0.104,2.161-0.371,4.361-1.499,6.331c-1.256,2.191-3.215,3.482-5.471,4.408c-2.284,0.937-4.607,1.768-7.005,2.366
	c-2.577,0.645-4.041,0.104-5.598-2.053c-3.655-5.067-7.385-10.085-10.904-15.245c-1.589-2.331-1.176-4.967-0.032-7.44
	c2.024-4.377,4.04-8.756,5.879-13.216c0.38-0.919,0.794-1.856,1.369-2.658c1.376-1.917,3.356-2.447,5.597-1.463
	c3.979,1.747,7.917,3.572,11.964,5.175C197.259,135.323,199.238,138.58,199.152,143.327z"/>
<path fill-rule="evenodd" clip-rule="evenodd" fill="#333333" d="M201.408,132.698c-4.979,0.009-8.703-1.504-12.274-3.389
	c-2.57-1.357-5.116-2.762-7.716-4.064c-1.757-0.879-2.236-1.897-1.742-3.796c0.687-2.638,2.031-5.011,3.101-7.492
	c1.321-3.063,2.801-6.057,4.16-9.104c1.009-2.262,2.959-3.609,5.418-3.613c1.879-0.003,3.76-0.071,5.634,0.018
	c2.128,0.101,4.18-0.459,6.292-0.542c3.594-0.142,6.331,1.444,8.34,4.117c3.357,4.469,5.422,9.645,7.142,14.916
	c0.976,2.99,0.091,4.85-2.592,6.431c-3.296,1.943-6.673,3.738-10.198,5.238C204.931,132.285,202.795,132.681,201.408,132.698z"/>
<path fill-rule="evenodd" clip-rule="evenodd" fill="#333333" d="M120.193,222.391c0.176,2.072-0.799,3.412-2.507,4.162
	c-5.142,2.259-10.305,4.472-15.485,6.642c-1.89,0.792-3.794,0.579-5.667-0.256c-4.548-2.028-9.12-4.003-13.669-6.03
	c-0.939-0.418-1.859-0.858-2.659-1.58c-1.194-1.079-1.238-2.33-0.875-3.713c0.553-2.106,1.75-3.926,2.715-5.842
	c1.314-2.609,2.235-5.369,3.362-8.049c1.891-4.497,5.602-6.503,10.447-5.778c1.057,0.158,2.15,0.086,3.227,0.09
	c2.479,0.011,4.959,0.067,7.435-0.012c3.554-0.114,5.944,1.583,7.36,4.687c2.05,4.494,3.967,9.049,5.984,13.559
	C120.191,221.006,120.208,221.729,120.193,222.391z"/>
<path fill-rule="evenodd" clip-rule="evenodd" fill="#333333" d="M202.077,99.11c-3.076-0.059-5.532-0.113-7.993-0.047
	c-4.52,0.122-7.13-2.28-8.543-6c-1.391-3.661-2.954-7.229-4.685-10.738c-0.729-1.479-1.359-3.011-0.98-4.807
	c0.357-1.693,1.423-2.761,2.848-3.274c2.472-0.89,4.62-2.304,6.839-3.626c2.647-1.577,5.487-2.401,8.601-2.531
	c4.732-0.199,9.044,1.19,13.217,3.164c2.308,1.091,4.655,2.128,6.813,3.507c2.042,1.305,2.635,2.979,1.832,5.256
	c-1.379,3.91-3.076,7.692-4.718,11.496c-0.822,1.906-1.661,3.77-3.157,5.301c-1.33,1.361-2.983,1.88-4.729,1.983
	C205.438,98.911,203.46,99.339,202.077,99.11z"/>
<path fill-rule="evenodd" clip-rule="evenodd" fill="#333333" d="M102.181,198.92c-2.187-0.213-4.924,0.222-7.673,0.239
	c-3.375,0.021-5.963-1.465-7.884-4.177c-2.493-3.517-3.837-7.592-5.52-11.5c-0.548-1.272-0.971-2.585-1.3-3.952
	c-0.529-2.2,0.563-3.601,2.171-4.409c4.096-2.061,8.207-4.13,12.454-5.842c4.819-1.943,9.589-1.539,14.052,1.336
	c2.359,1.519,5.097,2.247,7.582,3.516c1.068,0.546,2.135,1.105,3.05,1.851c1.304,1.063,1.302,2.559,0.924,4.059
	c-0.371,1.476-0.944,2.892-1.652,4.224c-1.725,3.244-3.038,6.668-4.505,10.023c-1.434,3.279-3.431,4.632-7.052,4.633
	C105.468,198.92,104.109,198.92,102.181,198.92z"/>
<path fill-rule="evenodd" clip-rule="evenodd" fill="#333333" d="M185,225.458c-0.073-1.491,0.861-2.414,1.547-3.405
	c3.123-4.511,6.301-8.983,9.463-13.467c0.55-0.778,1.062-1.596,1.691-2.305c1.478-1.66,3.285-1.666,4.684,0.101
	c1.726,2.18,3.323,4.462,4.938,6.727c1.57,2.199,3.1,4.429,4.637,6.651c0.928,1.341,1.895,2.658,2.742,4.048
	c1.117,1.833,0.67,3.296-1.264,4.458c-3.768,2.265-7.659,4.232-11.966,5.303c-1.123,0.279-2.156,0.083-3.167-0.195
	c-4.3-1.185-8.234-3.203-12.018-5.521C185.405,227.31,184.816,226.487,185,225.458z"/>
<path fill-rule="evenodd" clip-rule="evenodd" fill="#333333" d="M84.933,75.364c-0.151-1.077,0.445-1.821,1.237-2.309
	c3.81-2.344,7.747-4.425,12.086-5.658c1.479-0.42,2.856,0.071,4.195,0.413c4.131,1.054,7.863,3.076,11.556,5.147
	c1.188,0.667,1.531,2.025,0.893,3.351c-0.955,1.984-2.346,3.693-3.593,5.488c-2.835,4.083-5.721,8.131-8.601,12.183
	c-1.688,2.375-3.65,2.413-5.396,0.044c-2.196-2.978-4.329-6.001-6.472-9.018c-1.751-2.465-3.479-4.946-5.209-7.425
	C85.164,76.916,84.795,76.211,84.933,75.364z"/>
<path fill-rule="evenodd" clip-rule="evenodd" fill="#333333" d="M185.249,175.431c-0.245-1.535,0.824-2.444,1.979-2.882
	c3.135-1.189,6.049-2.851,9.17-4.069c2.72-1.063,5.271-0.958,7.945,0.173c3.166,1.34,6.289,2.73,9.16,4.637
	c1.738,1.155,2.071,2.68,0.886,4.476c-1.425,2.159-2.902,4.284-4.376,6.41c-2.398,3.461-4.813,6.91-7.222,10.364
	c-0.113,0.163-0.215,0.337-0.344,0.486c-1.811,2.104-3.112,1.992-4.728-0.291c-3.399-4.806-6.885-9.551-10.241-14.386
	C186.462,178.886,185.034,177.534,185.249,175.431z"/>
<path fill-rule="evenodd" clip-rule="evenodd" fill="#333333" d="M121.214,172.992c-1.282,0.141-2.344-0.496-3.421-0.975
	c-3.132-1.392-6.238-2.842-9.338-4.305c-0.752-0.355-1.461-0.813-2.153-1.281c-1.642-1.109-2.026-3.336-0.834-4.932
	c0.546-0.73,1.16-1.418,1.796-2.073c3.419-3.521,6.938-6.951,10.256-10.565c2.082-2.266,4.295-4.392,6.43-6.6
	c1.249-1.291,2.393-1.385,3.628-0.127c2.555,2.604,4.354,5.662,5.054,9.29c0.049,0.252-0.036,0.553-0.126,0.807
	c-2.438,6.835-5.08,13.577-8.924,19.779C122.999,172.952,122.153,173.06,121.214,172.992z"/>
<path fill-rule="evenodd" clip-rule="evenodd" fill="#333333" d="M67.15,151.52c0.312-3.268,1.827-6.271,4.569-8.578
	c1.686-1.417,3.774-1.262,5.25,0.424c3.269,3.734,7.155,6.838,10.506,10.481c2.209,2.401,4.514,4.741,6.379,7.417
	c1.379,1.979,2.177,4.008-1.13,5.811c-2.946,1.605-6.089,2.775-9.1,4.238c-0.79,0.383-1.588,0.747-2.38,1.127
	c-2.466,1.186-4.842,0.419-6.014-2.042c-2.704-5.679-5.362-11.379-7.872-17.147C67.156,152.783,67.172,152.319,67.15,151.52z"/>
</svg>
