<?xml version="1.0" encoding="utf-8"?>
<!-- Generator: Adobe Illustrator 16.0.0, SVG Export Plug-In . SVG Version: 6.00 Build 0)  -->
<!DOCTYPE svg PUBLIC "-//W3C//DTD SVG 1.1//EN" "http://www.w3.org/Graphics/SVG/1.1/DTD/svg11.dtd">
<svg version="1.1" id="Layer_1" xmlns="http://www.w3.org/2000/svg" xmlns:xlink="http://www.w3.org/1999/xlink" x="0px" y="0px"
	 width="198.073px" height="129.998px" viewBox="0 26.061 198.073 129.998" enable-background="new 0 26.061 198.073 129.998"
	 xml:space="preserve">
<path fill="#FFFFFF" d="M156.738,89.069c-0.848-3.191-2.016-6.26-4.067-8.918c-0.491-0.637-0.915-0.718-1.653-0.308
	c-3.177,1.767-6.375,3.496-9.603,5.167c-4.981,2.58-10.052,4.988-15.179,7.267c-4.586,2.041-9.203,4.012-13.873,5.855
	c-3.567,1.408-7.133,2.819-10.688,4.254c-0.229,0.093-0.765,0.05-0.603,0.519c0.125,0.356,0.543,0.236,0.836,0.168
	c1.012-0.238,2.033-0.454,3.023-0.764c7.823-2.45,15.416-5.509,22.896-8.849c5.475-2.445,10.911-4.969,16.231-7.743
	c1.598-0.833,3.139-1.789,4.838-2.415c1.373-0.505,2.578-0.25,3.588,0.863c0.668,0.734,1.133,1.573,1.463,2.495
	c1.602,4.474,2.47,9.106,2.889,13.821c0.313,3.523,0.45,7.063,0.75,10.587c0.145,1.714,0.262,3.464,1.256,5.179
	c0.282-0.825,0.342-1.479,0.344-2.14c0.002-2.873,0.006-5.741-0.129-8.621C158.799,99.928,158.164,94.445,156.738,89.069z"/>
<path fill="#FFFFFF" d="M171.532,56.741c1.438-3.129,0.909-5.954-2.992-6.831c-0.937-0.21-1.894-0.373-2.872-0.411
	c-2.923-0.113-5.814,0.266-8.715,0.491c-0.828,0.064-1.645,0.273-2.696,0.455c0.992,0.405,1.772,0.528,2.566,0.621
	c2.386,0.28,4.784,0.154,7.176,0.261c1.041,0.047,2.074,0.13,3.075,0.469c2.257,0.765,3.123,2.714,2.139,4.883
	c-0.695,1.537-1.745,2.834-2.895,4.041c-3.631,3.813-7.752,7.055-12.113,9.959c-5.93,3.947-12.096,7.521-18.186,11.217
	c-5.414,3.286-11.035,6.184-16.66,9.083c-6.336,3.266-12.713,6.455-18.906,9.988c-0.572,0.33-1.209,0.631-1.524,1.305
	c0.407,0.238,0.658-0.051,0.919-0.158c1.402-0.584,2.798-1.184,4.184-1.805c5.72-2.563,11.338-5.337,16.93-8.168
	c8.968-4.541,17.763-9.387,26.289-14.709c6.235-3.892,12.351-7.964,17.832-12.9C167.611,62.254,170.08,59.898,171.532,56.741z"/>
<path fill="#FFFFFF" d="M139.419,74.97c1.124-0.633,2.349-1.246,2.972-2.514c0.017-0.004,0.032-0.006,0.049-0.01
	c-0.011-0.004-0.021-0.009-0.033-0.012c-5.227,2.102-10.26,4.633-15.354,7.025C118.021,83.7,108.975,87.902,99.879,92
	c-8.648,3.896-17.332,7.707-26.097,11.336c-7.992,3.309-15.998,6.576-24.255,9.182c-0.563,0.178-0.886,0.51-1.038,1.15
	c-0.418,1.762-0.614,3.563-0.771,5.346c-0.489,5.569-0.47,11.143,0.195,16.713c0.498,4.162,1.176,8.281,2.231,12.338
	c0.17,0.653,0.052,1.828,0.893,1.681c0.923-0.163,0.653-1.349,0.535-2.08c-0.338-2.084-0.646-4.173-0.992-6.255
	c-0.459-2.762-0.855-5.532-1.131-8.311c-0.273-2.754-0.213-5.533-0.253-8.306c-0.02-1.418,0.274-2.754,0.521-4.108
	c0.212-1.16,1.247-1.567,2.319-1.019c0.721,0.371,1.314,0.888,1.828,1.517c1.557,1.908,3.239,3.693,5.053,5.368
	c4.692,4.333,9.929,7.816,15.825,10.287c5.248,2.198,10.68,3.829,16.357,4.255c6.236,0.469,12.461,0.374,18.609-1.214
	c3.649-0.942,7.224-2.053,10.622-3.649c4.811-2.26,9.223-5.158,13.229-8.664c4.646-4.063,8.455-8.81,11.455-14.188
	c1.553-2.781,2.856-5.689,3.299-8.898c0.07-0.52,0.256-1.06-0.225-1.633c-0.398,0.836-0.873,1.532-1.07,2.301
	c-0.481,1.877-1.48,3.528-2.308,5.229c-1.255,2.587-2.851,5.021-4.569,7.338c-4.012,5.406-8.893,9.925-14.548,13.554
	c-4.389,2.815-9.163,4.883-14.17,6.319c-3.321,0.952-6.752,1.681-10.192,1.822c-4.3,0.179-8.61,0.278-12.919-0.567
	c-3.106-0.609-6.185-1.268-9.165-2.289c-5.007-1.718-9.638-4.175-13.937-7.291c-4.865-3.525-8.996-7.75-12.512-12.601
	c-0.443-0.61-0.819-1.269-1.229-1.902c-0.317-0.491-0.274-0.805,0.363-0.981c0.896-0.25,1.78-0.549,2.655-0.865
	c5.532-2.007,11.043-4.071,16.456-6.385c0.988-0.422,1.521-0.004,1.977,0.728c1.578,2.538,3.531,4.781,5.629,6.876
	c2.982,2.977,6.381,5.422,10.097,7.428c6.027,3.252,12.496,4.826,19.302,5.114c2.431,0.103,4.832-0.233,7.24-0.54
	c3.918-0.499,7.647-1.619,11.231-3.212c6.319-2.81,11.634-6.959,15.997-12.319c1.645-2.02,3.078-4.184,4.221-6.529
	c0.098-0.2,0.311-0.469,0.086-0.668c-0.27-0.238-0.545-0.006-0.724,0.183c-0.502,0.524-1.001,1.062-1.442,1.636
	c-3.207,4.164-6.578,8.188-10.893,11.252c-7.153,5.08-14.992,8.264-23.926,8.312c-4.881,0.026-9.626-0.604-14.237-2.263
	c-4.69-1.686-8.982-4.047-12.867-7.164c-2.354-1.889-4.418-4.061-6.258-6.44c-0.813-1.051-1.036-2.243-0.418-3.517
	c0.486-1,1.459-1.394,2.348-1.786c5.199-2.304,10.443-4.505,15.645-6.805c5.838-2.58,11.667-5.186,17.464-7.858
	c5.448-2.513,10.862-5.103,16.271-7.704C131.686,79.327,135.555,77.147,139.419,74.97z"/>
<path fill="#FFFFFF" d="M189.51,43.707c-2.668-0.977-5.494-1.11-8.308-0.946c-7.661,0.445-15.138,1.889-22.403,4.363
	c-1.26,0.426-2.49,0.972-3.55,1.798c0.039,0.101,0.078,0.201,0.117,0.302c0.405-0.044,0.819-0.043,1.212-0.139
	c5.64-1.383,11.279-2.74,17.011-3.719c4.086-0.697,8.169-1.137,12.308-0.849c1.596,0.111,3.136,0.524,4.56,1.302
	c3.05,1.666,3.797,4.953,1.675,7.685c-2.693,3.466-6.199,6.028-9.755,8.511c-6.256,4.368-12.89,8.117-19.583,11.757
	c-1.583,0.86-1.587,0.854-1.025,2.623c0.043,0.132,0.08,0.266,0.107,0.402c0.788,3.807,1.244,7.659,1.371,11.538
	c0.082,2.488,0.018,4.98-0.122,7.477c-0.19,3.471-0.753,6.879-1.235,10.307c-0.398,2.845-1.256,5.584-1.781,8.396
	c-0.053,0.282-0.271,0.694,0.084,0.846c0.418,0.177,0.545-0.319,0.757-0.562c0.134-0.151,0.196-0.364,0.301-0.546
	c1.575-2.729,1.951-5.824,2.576-8.816c0.507-2.428,0.659-4.933,0.918-7.406c0.629-6.033,0.317-12.053-0.479-18.045
	c-0.439-3.292,0.264-5.038,3.145-6.664c4.956-2.795,9.875-5.646,14.584-8.847c3.736-2.54,7.355-5.227,10.361-8.631
	c1.496-1.693,2.687-3.581,2.396-5.994C194.365,46.662,192.355,44.749,189.51,43.707z"/>
<path fill="#FFFFFF" d="M196.402,44.571c-2.473-3.086-5.922-4.373-9.661-4.875c-5.392-0.724-10.743,0.075-16.03,1.006
	c-2.329,0.411-4.684,0.81-7.002,1.395c-4.126,1.042-8.284,1.949-12.393,3.084c-3.072,0.849-4.336,3.723-3.758,6.471
	c0.449,2.146,1.987,3.414,4.185,3.48c3.19,0.096,6.362-0.083,9.532-0.461c1.129-0.134,2.291-0.092,3.431-0.02
	c1.067,0.068,1.368,0.699,0.876,1.647c-0.37,0.711-0.835,1.358-1.396,1.935c-2.494,2.568-5.158,4.949-8.059,7.048
	c-1.516,1.096-2.98,2.273-4.648,3.147c-0.963,0.504-1.781,0.435-2.479-0.469c-0.476-0.617-1.103-1.015-1.845-1.298
	c-1.951-0.745-3.86-0.345-5.707,0.263c-5.34,1.757-10.514,3.967-15.774,5.941c-3.928,1.473-7.784,3.135-11.724,4.576
	c-5.627,2.06-11.311,3.965-16.948,5.992c-4.301,1.544-8.633,2.997-12.939,4.524c-2.281,0.809-4.645,1.363-6.875,2.343
	c-1.129,0.497-2.381,0.772-3.605,0.978c-1.244,0.207-1.82-0.252-2.061-1.485c-0.211-1.087-0.32-2.196-0.463-3.295
	c-0.609-4.653,0.027-9.228,1.333-13.653c1.134-3.84,2.799-7.485,5.079-10.862c2.174-3.221,4.629-6.097,7.693-8.491
	c3.16-2.471,6.644-4.332,10.319-5.889c0.968-0.41,1.977-0.608,2.967-0.906c5.729-1.725,11.499-1.918,17.369-0.826
	c3.375,0.628,6.504,1.894,9.602,3.281c1.614,0.723,3.145,1.59,4.622,2.575c2.503,1.666,4.629,3.754,6.804,5.795
	c1.73,1.626,3.814,2.228,6.053,1.596c2.929-0.828,3.41-3.725,2.735-6.427c-0.524-2.103-1.803-3.875-3.161-5.445
	c-4.699-5.431-10.072-10.085-16.375-13.641c-5.396-3.046-11.072-5.357-17.16-6.441c-8.441-1.503-16.937-1.49-25.365,0.16
	c-8.397,1.644-15.879,5.439-22.645,10.542c-4.704,3.549-8.84,7.769-12.266,12.608c-2.151,3.04-4.325,6.041-5.584,9.65
	c-0.697,1.997-1.581,3.951-2.343,5.945c-1.069,2.8-1.744,5.688-2.185,8.6c-0.796,5.256-0.967,10.567-0.643,15.889
	c0.174,2.855,0.783,5.633,1.334,8.423c0.258,1.303,0.046,1.763-1.213,2.07c-1.722,0.422-3.48,0.678-5.261,0.553
	c-1.072-0.073-1.41-0.797-0.75-1.634c0.707-0.896,1.466-1.768,2.303-2.542c1.262-1.167,1.903-2.617,2.237-4.25
	c0.591-2.883-0.993-5.37-3.619-5.636c-1.73-0.175-3.38,0.139-4.942,0.931c-1.981,1.006-3.832,2.226-5.719,3.391
	c-4.164,2.572-8.344,5.116-12.109,8.26c-2.713,2.266-5.423,4.533-7.354,7.585c-2.059,3.253-2.075,8.854,0.566,11.946
	c2.456,2.876,5.67,4.177,9.264,4.631c6.612,0.834,13.075-0.455,19.53-1.633c2.163-0.396,2.638-0.146,3.202,1.927
	c1.197,4.396,1.903,8.909,3.836,13.123c1.287,2.804,1.99,5.858,3.403,8.655c0.99,1.961,1.8,4.01,2.954,5.899
	c1.143,1.872,2.448,3.466,4.799,3.753c2.427,0.297,4.886-0.752,5.313-3.574c0.255-1.688,0.1-3.346-0.362-4.946
	c-1.313-4.558-1.981-9.224-2.512-13.916c-0.253-2.242-0.438-4.493-0.28-6.755c0.029-0.412,0.063-0.883,0.533-1.047
	c0.481-0.168,0.762,0.211,1.044,0.519c4.315,4.701,9.424,8.406,14.966,11.469c4.813,2.659,9.969,4.503,15.393,5.61
	c7.505,1.533,15.002,1.619,22.545,0.369c7.101-1.178,13.71-3.705,19.894-7.309c5.611-3.271,10.558-7.402,14.744-12.396
	c4.77-5.689,8.445-12.01,10.857-19.043c0.212-0.622,0.48-1.199,1.083-1.92c0.41,2.468,0.593,4.666,0.61,6.889
	c0.02,2.566,0.048,5.137,0.074,7.702c0.043,3.845,4.373,5.491,7.021,4.089c1.747-0.925,2.561-2.365,3.05-4.116
	c0.983-3.509,1.845-7.041,2.429-10.646c0.735-4.559,1.383-9.115,1.447-13.743c0.063-4.513-0.052-9.015-0.727-13.484
	c-0.279-1.845,0.488-3.011,2.097-3.854c3.335-1.75,6.565-3.682,9.729-5.727c2.629-1.701,5.252-3.394,7.771-5.276
	c2.922-2.183,5.753-4.448,8.202-7.128c2.831-3.1,3.276-6.846,2.341-10.812C197.424,46.087,196.964,45.273,196.402,44.571z
	 M150.85,95.256c-2.129-0.665-4.078-0.303-5.637,1.335c-0.975,1.023-1.745,2.197-2.229,3.58c-0.635,1.81-1.756,3.38-2.838,4.946
	c-2,2.896-4.358,5.502-7.086,7.714c-2.666,2.163-5.588,3.954-8.74,5.379c-5.086,2.3-10.416,3.417-15.969,3.294
	c-7.675-0.17-14.749-2.306-21.064-6.783c-2.355-1.671-4.464-3.604-6.494-5.635c-0.268-0.268-0.516-0.575-0.689-0.906
	c-0.503-0.962-0.311-1.517,0.658-2.031c0.244-0.129,0.495-0.25,0.752-0.354c1.799-0.713,2.219-0.379,2.351,1.512
	c0.161,2.346,1.593,4.483,4.564,4.362c2.581-0.088,4.924-1.096,7.32-1.897c5.885-1.973,11.666-4.234,17.431-6.521
	c9.379-3.72,18.607-7.791,27.646-12.288c2.077-1.034,4.102-2.183,6.262-3.049c0.707-0.283,1.211-0.922,1.99-1.1
	c0.764-0.174,1.452-0.101,1.752,0.682c0.813,2.136,1.64,4.282,1.672,6.614C152.521,95.485,152.18,95.672,150.85,95.256z
	 M194.736,55.169c-1.695,2.411-3.774,4.441-6.061,6.252c-4.324,3.427-8.912,6.467-13.682,9.244c-2.098,1.221-4.139,2.524-6.32,3.606
	c-2.412,1.195-3.188,2.703-2.777,5.368c1.121,7.263,1.07,14.535,0.221,21.802c-0.578,4.93-1.438,9.818-2.989,14.557
	c-0.375,1.146-1.006,2.141-1.948,2.9c-1.863,1.504-3.207,1.192-4.631-0.944c-0.619-0.931-0.803-2.063-0.804-3.196
	c-0.006-5-0.142-9.994-0.683-14.972c-0.467-4.287-1.141-8.525-2.674-12.584c-0.888-2.348-2.432-2.881-4.804-1.555
	c-3.304,1.846-6.7,3.509-10.096,5.168c-5.33,2.605-10.751,5.02-16.19,7.391c-6.611,2.884-13.354,5.437-20.121,7.919
	c-2.831,1.039-5.728,1.895-8.584,2.859c-1.178,0.398-2.373,0.511-3.594,0.39c-2.228-0.224-3.124-2.128-1.861-3.983
	c0.773-1.141,1.79-2.045,3.037-2.629c2.795-1.308,5.582-2.646,8.434-3.821c4.268-1.759,8.313-3.975,12.497-5.902
	c3.623-1.668,7.137-3.556,10.6-5.531c0.581-0.331,1.669-0.841,1.447-1.235c-0.411-0.735-1.238,0.039-1.797,0.268
	c-2.689,1.103-5.358,2.252-7.977,3.535c-3.044,1.492-6.212,2.732-9.273,4.191c-5.137,2.447-10.377,4.662-15.566,6.992
	c-2.467,1.106-5.02,2.017-7.525,3.033c-0.609,0.247-1.196,0.554-1.781,0.854c-1.654,0.854-1.949,2.07-0.857,3.547
	c0.91,1.23,1.939,2.367,3.063,3.397c4.477,4.104,9.523,7.329,15.346,9.116c6.604,2.027,13.332,2.443,20.158,1.023
	c6.705-1.396,12.679-4.256,17.869-8.684c3.457-2.945,6.301-6.439,8.539-10.411c0.647-1.147,1.36-2.258,2.059-3.376
	c0.184-0.292,0.4-0.57,0.639-0.819c1.229-1.284,2.823-1.716,3.924-1.08c1.281,0.741,1.857,2.709,1.467,4.338
	c-1.063,4.418-2.861,8.521-5.137,12.429c-1.172,2.009-2.478,3.938-3.927,5.749c-2.36,2.948-4.728,5.895-7.626,8.368
	c-5.484,4.685-11.464,8.494-18.34,10.83c-8.199,2.786-16.591,3.905-25.219,3.106c-5.324-0.492-10.445-1.838-15.41-3.811
	c-8.402-3.34-15.601-8.396-21.627-15.131c-0.278-0.311-0.56-0.619-0.867-0.899c-1.088-0.993-1.875-0.771-2.234,0.646
	c-0.231,0.912-0.283,1.852-0.282,2.791c0.001,4.388,0.489,8.73,1.191,13.053c0.462,2.843,0.983,5.676,1.713,8.466
	c0.258,0.988,0.298,1.996,0.093,2.995c-0.502,2.439-3.103,3.406-5.073,1.889c-0.97-0.748-1.735-1.648-2.309-2.766
	c-3.613-7.032-6.378-14.382-8.425-22.012c-0.432-1.608-0.915-3.199-1.275-4.828c-0.423-1.911-1.687-2.676-3.774-2.26
	c-3.099,0.617-6.203,1.209-9.337,1.6c-4.349,0.541-8.704,0.932-13.012-0.378c-3.117-0.947-5.486-2.861-6.97-5.703
	c-0.948-1.813-0.845-3.84-0.097-5.769c0.857-2.211,2.271-4.049,3.978-5.66c3.742-3.531,7.837-6.607,12.207-9.322
	c2.357-1.463,4.718-2.922,7.063-4.404c1.07-0.676,2.212-1.162,3.441-1.434c1.208-0.265,2.367-0.17,3.292,0.758
	c0.996,1,1.057,2.197,0.645,3.482c-0.505,1.576-1.676,2.693-2.659,3.941c-0.494,0.627-1.011,1.242-1.438,1.913
	c-0.909,1.432-0.265,2.987,1.407,3.196c2.608,0.325,5.209,0.05,7.739-0.62c1.486-0.393,2.042-1.501,1.764-3.079
	c-0.271-1.538-0.636-3.061-0.867-4.604c-1.327-8.874-0.949-17.625,1.677-26.268c2.401-7.902,6.36-14.916,11.743-21.116
	c5.647-6.503,12.382-11.65,20.289-15.107c6.512-2.848,13.322-4.558,20.509-4.38c0.862,0.023,1.731,0.004,2.599,0.004
	c5.635-0.234,11.152,0.427,16.547,2.116c7.176,2.247,13.729,5.691,19.465,10.525c3.49,2.941,6.72,6.206,9.32,10.021
	c0.688,1.009,1.032,2.14,1.219,3.284c0.34,2.105-1.801,3.492-4.064,2.684c-0.887-0.316-1.729-0.78-2.389-1.451
	c-4.047-4.132-8.914-6.975-14.241-9.093c-3.604-1.433-7.38-2.043-11.233-2.352c-5.688-0.457-11.209,0.279-16.53,2.278
	C86.71,48.981,80.124,54.214,75.4,61.73c-2.119,3.37-3.777,6.945-4.736,10.806c-1.482,5.963-1.866,11.983-0.656,18.057
	c0.449,2.261,1.681,3.114,3.891,2.465c4.461-1.31,8.832-2.897,13.229-4.406c4.658-1.598,9.326-3.17,13.968-4.812
	c8.274-2.927,16.528-5.906,24.702-9.109c4.554-1.784,9.15-3.456,13.738-5.151c0.907-0.336,1.854-0.588,2.798-0.807
	c2.184-0.504,3.764,0.267,4.786,2.28c0.442,0.872,1.079,1.083,2.206,0.665c1.707-0.633,3.199-1.651,4.676-2.692
	c3.432-2.418,6.773-4.952,9.814-7.85c1.427-1.358,2.854-2.734,3.695-4.587c0.809-1.785,0.07-3.224-1.896-3.444
	c-2.984-0.335-5.964,0.083-8.942,0.182c-1.361,0.045-2.719,0.086-4.016-0.373c-1.127-0.399-2.066-1.104-2.276-2.352
	c-0.202-1.198,0.377-2.14,1.315-2.881c1.115-0.88,2.443-1.303,3.751-1.756c1.706-0.592,3.504-0.857,5.243-1.319
	c4.127-1.094,8.298-1.966,12.5-2.691c4.149-0.716,8.336-1.134,12.535-0.712c3.043,0.305,5.863,1.313,8.123,3.55
	C196.855,47.769,197.178,51.697,194.736,55.169z"/>
<path fill="#FFFFFF" d="M25.847,99.312c-2.493,3.857,0.836,7.439,3.647,7.569c2.604,0.12,5.205,0.055,7.776-0.415
	c3.775-0.688,7.529-1.472,11.258-2.397c7.221-1.791,14.366-3.857,21.459-6.083c10.967-3.438,21.873-7.059,32.673-10.993
	c7.146-2.603,14.318-5.137,21.43-7.832c5.422-2.054,10.846-4.109,16.153-6.449c0.373-0.164,1.106-0.2,0.938-0.709
	c-0.147-0.447-0.799-0.126-1.229-0.061c-0.068,0.011-0.136,0.034-0.201,0.052c-4.688,1.29-9.294,2.851-13.839,4.551
	c-6.553,2.451-13.161,4.75-19.732,7.144c-8.932,3.253-17.967,6.222-26.966,9.286c-1.97,0.671-3.966,1.273-5.976,1.817
	c-1.864,0.504-3.383-0.27-4.16-2.028c-0.465-1.054-0.693-2.18-0.873-3.313c-1.368-8.671,0.091-16.924,3.83-24.786
	c2.201-4.628,5.289-8.657,9.1-12.085c6.487-5.835,14.121-9.285,22.741-10.431c11.071-1.472,20.892,1.938,29.976,8.011
	c1.553,1.038,2.959,2.302,4.664,3.104c0.227,0.106,0.563,0.327,0.762,0.044c0.229-0.324-0.088-0.569-0.297-0.795
	c-2.859-3.081-6.229-5.513-9.901-7.493c-5.19-2.799-10.731-4.403-16.64-4.973c-4.371-0.421-8.642-0.051-12.869,0.819
	c-3.514,0.723-6.871,2.002-10.098,3.634c-4.188,2.117-7.91,4.86-11.195,8.165c-2.146,2.159-4.035,4.556-5.681,7.145
	c-2.392,3.764-4.208,7.767-5.343,12.073c-0.713,2.708-1.09,5.461-1.379,8.259c-0.293,2.828-0.061,5.592,0.207,8.357
	c0.252,2.597,0.838,5.166,1.696,7.65c0.148,0.429,0.017,0.576-0.397,0.751c-0.703,0.298-1.445,0.417-2.159,0.646
	c-6.098,1.947-12.281,3.585-18.485,5.151c-0.865,0.218-1.271-0.106-1.469-0.94c-0.292-1.233-0.601-2.472-0.955-3.683
	c-0.95-3.255-1.392-6.589-1.489-9.939c-0.084-2.888-0.301-5.795,0.234-8.696c0.258-1.405,0.311-2.849,0.593-4.272
	c0.627-3.171,1.507-6.251,2.624-9.285c1.613-4.382,3.808-8.453,6.469-12.259c2.338-3.345,5.077-6.374,8.144-9.077
	c2.673-2.356,5.548-4.456,8.62-6.266c5.084-2.993,10.566-5,16.301-6.277c2.439-0.543,4.934-0.894,7.469-0.851
	c5.131,0.086,10.291-0.362,15.314,1.2c2.125,0.66,4.309,1.067,6.424,1.843c3.879,1.422,7.533,3.242,10.989,5.452
	c4.42,2.827,8.263,6.346,11.753,10.26c0.87,0.975,1.615,2.082,2.879,3.01c-0.188-1.143-0.518-1.99-1.053-2.785
	c-2.625-3.898-5.893-7.155-9.646-9.968c-5.885-4.407-12.386-7.482-19.483-9.349c-5.476-1.439-11.057-1.434-16.653-1.397
	c-5.367,0.034-10.552,1.096-15.584,2.832c-8.448,2.915-15.708,7.699-21.861,14.203c-7.884,8.333-12.831,18.094-14.641,29.435
	c-0.948,5.941-0.827,11.895-0.256,17.854c0.189,1.973,0.803,3.865,1.248,5.788c0.439,1.902-0.582,3.853-2.73,4.424
	c-2.2,0.584-4.44,0.692-6.672,0.929c-1.184,0.125-2.363-0.035-3.469-0.516c-1.971-0.855-2.67-3.021-1.542-4.857
	c0.92-1.496,1.891-2.961,2.854-4.43c0.197-0.301,0.325-0.604,0.344-0.962c0.014-0.247,0.064-0.514-0.175-0.661
	c-0.302-0.186-0.534,0.032-0.724,0.23C28.898,95.466,27.193,97.23,25.847,99.312z"/>
<path fill="#FFFFFF" d="M41.073,126.083c-0.833-3.14-1.497-6.325-2.193-9.5c-0.152-0.692-0.411-0.812-1.07-0.634
	c-1.934,0.521-3.877,1.012-5.833,1.441c-4.534,0.998-9.092,1.877-13.749,2.014c-2.703,0.078-5.468,0.238-7.991-0.932
	c-3.599-1.67-5.671-4.555-2.788-8.406c0.146-0.193,0.304-0.379,0.457-0.566c2.768-3.407,6.33-5.893,9.854-8.406
	c4.008-2.86,8.279-5.316,12.431-7.955c0.305-0.194,0.816-0.356,0.669-0.797c-0.145-0.436-0.652-0.279-1.02-0.262
	c-1.521,0.076-2.751,0.904-4.018,1.609c-4.397,2.451-8.609,5.193-12.587,8.276c-2.688,2.083-5.349,4.221-7.25,7.107
	c-2.299,3.494-1.682,7.178,1.6,9.767c1.453,1.146,3.13,1.798,4.927,2.097c3.595,0.597,7.193,0.369,10.783-0.104
	c3.304-0.435,6.571-1.082,9.842-1.707c2.59-0.494,4.125,0.427,4.92,2.949c0.24,0.76,0.423,1.538,0.619,2.312
	c1.989,7.852,4.325,15.577,8.326,22.688c0.659,1.169,1.418,2.284,2.883,3.046c-0.386-1.842-1.218-3.252-1.899-4.708
	C45.073,139.184,42.833,132.717,41.073,126.083z"/>
</svg>
