<?xml version="1.0" encoding="utf-8"?>
<!-- Generator: Adobe Illustrator 16.0.0, SVG Export Plug-In . SVG Version: 6.00 Build 0)  -->
<!DOCTYPE svg PUBLIC "-//W3C//DTD SVG 1.1//EN" "http://www.w3.org/Graphics/SVG/1.1/DTD/svg11.dtd">
<svg version="1.1" id="Layer_1" xmlns="http://www.w3.org/2000/svg" xmlns:xlink="http://www.w3.org/1999/xlink" x="0px" y="0px"
	 width="197.293px" height="128.92px" viewBox="0 41.785 197.293 128.92" enable-background="new 0 41.785 197.293 128.92"
	 xml:space="preserve">
<path fill="#FFFFFF" d="M156.439,131.035c0,1.161,0.186,2.324,0.809,3.278c1.432,2.196,2.783,2.513,4.658,0.97
	c0.945-0.781,1.582-1.8,1.959-2.978c1.561-4.861,2.426-9.882,3.006-14.942c0.855-7.459,0.906-14.925-0.221-22.38
	c-0.414-2.735,0.367-4.284,2.793-5.511c2.197-1.111,4.248-2.449,6.357-3.702c4.797-2.851,9.414-5.972,13.762-9.489
	c2.301-1.859,4.389-3.943,6.096-6.418c2.455-3.564,2.133-7.597-0.891-10.656c-2.273-2.297-5.109-3.332-8.17-3.645
	c-4.223-0.432-8.434-0.003-12.609,0.73c-4.225,0.746-8.422,1.641-12.572,2.764c-1.748,0.474-3.557,0.746-5.273,1.354
	c-1.314,0.465-2.652,0.898-3.773,1.803c-0.943,0.762-1.525,1.729-1.322,2.959c0.211,1.281,1.156,2.004,2.289,2.414
	c1.305,0.472,2.67,0.429,4.039,0.383c2.998-0.102,5.992-0.531,8.994-0.188c1.979,0.227,2.721,1.704,1.906,3.536
	c-0.846,1.901-2.281,3.315-3.715,4.708c-3.061,2.975-6.422,5.576-9.873,8.059c-1.486,1.068-2.986,2.114-4.705,2.764
	c-1.133,0.428-1.773,0.212-2.219-0.684c-1.029-2.066-2.617-2.857-4.814-2.34c-0.949,0.223-1.898,0.483-2.813,0.828
	c-4.615,1.74-9.24,3.456-13.818,5.288c-8.221,3.288-16.523,6.347-24.848,9.351c-4.668,1.687-9.364,3.299-14.049,4.939
	c-4.422,1.548-8.819,3.178-13.306,4.521c-2.224,0.668-3.462-0.209-3.915-2.528c-1.216-6.236-0.83-12.415,0.66-18.537
	c0.965-3.962,2.633-7.633,4.764-11.091c4.754-7.717,11.377-13.088,19.693-16.274c5.354-2.052,10.905-2.807,16.627-2.338
	c3.875,0.317,7.674,0.944,11.299,2.415c5.359,2.173,10.254,5.091,14.326,9.333c0.662,0.688,1.512,1.165,2.4,1.489
	c2.277,0.83,4.432-0.594,4.09-2.754c-0.188-1.176-0.535-2.336-1.225-3.372c-2.617-3.916-5.867-7.267-9.377-10.286
	c-5.77-4.962-12.359-8.498-19.578-10.805c-5.426-1.734-10.977-2.414-16.644-2.172c-0.873,0-1.746,0.02-2.619-0.002
	c-7.228-0.183-14.077,1.572-20.628,4.496c-7.953,3.549-14.727,8.832-20.408,15.508c-5.414,6.365-9.397,13.564-11.812,21.677
	c-2.642,8.872-3.022,17.856-1.687,26.965c0.231,1.584,0.6,3.147,0.871,4.726c0.282,1.62-0.277,2.758-1.772,3.162
	c-2.546,0.686-5.161,0.969-7.784,0.637c-1.684-0.215-2.33-1.813-1.416-3.283c0.428-0.688,0.947-1.319,1.445-1.963
	c0.988-1.281,2.166-2.428,2.674-4.045c0.415-1.321,0.354-2.551-0.648-3.576c-0.93-0.951-2.097-1.049-3.311-0.777
	c-1.236,0.277-2.385,0.777-3.461,1.471c-2.359,1.522-4.734,3.02-7.104,4.521c-4.396,2.785-8.515,5.943-12.278,9.572
	c-1.715,1.652-3.139,3.539-4,5.808c-0.752,1.979-0.856,4.06,0.098,5.923c1.492,2.916,3.875,4.88,7.011,5.854
	c4.333,1.343,8.714,0.943,13.089,0.388c3.151-0.399,6.273-1.007,9.391-1.644c2.1-0.428,3.371,0.358,3.796,2.319
	c0.362,1.672,0.848,3.308,1.282,4.957c2.06,7.831,4.84,15.377,8.475,22.597c0.577,1.146,1.348,2.07,2.322,2.836
	c1.982,1.56,4.599,0.566,5.104-1.938c0.207-1.025,0.167-2.061-0.093-3.074c-0.735-2.863-1.259-5.771-1.724-8.689
	c-0.707-4.436-1.197-8.895-1.198-13.398c-0.001-0.966,0.051-1.928,0.282-2.865c0.361-1.451,1.152-1.682,2.248-0.662
	c0.309,0.287,0.593,0.606,0.871,0.924c6.063,6.912,13.303,12.103,21.756,15.531c4.992,2.026,10.144,3.407,15.498,3.912
	c8.679,0.82,17.12-0.328,25.368-3.188c6.918-2.4,12.93-6.311,18.447-11.118c2.914-2.539,5.295-5.565,7.67-8.59
	c1.459-1.859,2.771-3.841,3.947-5.903c2.291-4.01,4.102-8.223,5.168-12.757c0.395-1.673-0.186-3.692-1.475-4.453
	c-1.105-0.653-2.711-0.21-3.945,1.106c-0.242,0.258-0.459,0.543-0.643,0.843c-0.703,1.147-1.42,2.286-2.07,3.465
	c-2.254,4.077-5.113,7.663-8.59,10.688c-5.223,4.545-11.23,7.48-17.975,8.914c-6.867,1.457-13.633,1.029-20.278-1.053
	c-5.855-1.836-10.932-5.145-15.435-9.357c-1.13-1.057-2.164-2.224-3.08-3.487c-1.099-1.517-0.803-2.765,0.862-3.642
	c0.589-0.31,1.179-0.623,1.791-0.877c2.521-1.045,5.091-1.978,7.57-3.115c5.22-2.391,10.49-4.663,15.659-7.178
	c3.08-1.496,6.266-2.771,9.326-4.303c2.633-1.314,5.318-2.496,8.023-3.628c0.563-0.233,1.393-1.028,1.807-0.274
	c0.225,0.403-0.871,0.929-1.455,1.269c-3.482,2.026-7.016,3.964-10.66,5.677c-4.209,1.979-8.277,4.253-12.571,6.059
	c-2.868,1.207-5.67,2.582-8.483,3.924c-1.254,0.598-2.276,1.527-3.056,2.697c-1.269,1.904-0.367,3.861,1.873,4.09
	c1.229,0.125,2.432,0.011,3.615-0.398c2.875-0.992,5.789-1.871,8.635-2.938c6.807-2.549,13.59-5.168,20.24-8.127
	c5.471-2.435,10.924-4.912,16.283-7.586c3.416-1.705,6.832-3.412,10.154-5.307c2.389-1.361,3.939-0.814,4.832,1.596
	c1.543,4.166,2.219,8.517,2.689,12.918C156.297,120.773,156.434,125.9,156.439,131.035z"/>
</svg>
